ISO-10303-21;
HEADER;
/* Generated by software containing ST-Developer
 * from STEP Tools, Inc. (www.steptools.com) 
 */

FILE_DESCRIPTION(
/* description */ (''),
/* implementation_level */ '2;1');

FILE_NAME(
/* name */ 'Robobus_v5_Assembled.step',
/* time_stamp */ '2026-09-26T01:32:16+08:00',
/* author */ (''),
/* organization */ (''),
/* preprocessor_version */ 'ST-DEVELOPER v20.2',
/* originating_system */ 'Autodesk Translation Framework v15.15.0.0',
/* authorisation */ '');

FILE_SCHEMA (('AUTOMOTIVE_DESIGN { 1 0 10303 214 3 1 1 }'));
ENDSEC;

DATA;
#10=MECHANICAL_DESIGN_GEOMETRIC_PRESENTATION_REPRESENTATION('',(#83,#84,
#85,#86,#87,#88,#89),#2050);
#11=ITEM_DEFINED_TRANSFORMATION($,$,#1262,#1357);
#12=ITEM_DEFINED_TRANSFORMATION($,$,#1274,#1358);
#13=ITEM_DEFINED_TRANSFORMATION($,$,#1281,#1359);
#14=ITEM_DEFINED_TRANSFORMATION($,$,#1293,#1360);
#15=ITEM_DEFINED_TRANSFORMATION($,$,#1300,#1361);
#16=ITEM_DEFINED_TRANSFORMATION($,$,#1324,#1362);
#17=(
REPRESENTATION_RELATIONSHIP($,$,#2076,#2075)
REPRESENTATION_RELATIONSHIP_WITH_TRANSFORMATION(#11)
SHAPE_REPRESENTATION_RELATIONSHIP()
);
#18=(
REPRESENTATION_RELATIONSHIP($,$,#2077,#2075)
REPRESENTATION_RELATIONSHIP_WITH_TRANSFORMATION(#12)
SHAPE_REPRESENTATION_RELATIONSHIP()
);
#19=(
REPRESENTATION_RELATIONSHIP($,$,#2078,#2075)
REPRESENTATION_RELATIONSHIP_WITH_TRANSFORMATION(#13)
SHAPE_REPRESENTATION_RELATIONSHIP()
);
#20=(
REPRESENTATION_RELATIONSHIP($,$,#2079,#2075)
REPRESENTATION_RELATIONSHIP_WITH_TRANSFORMATION(#14)
SHAPE_REPRESENTATION_RELATIONSHIP()
);
#21=(
REPRESENTATION_RELATIONSHIP($,$,#2080,#2075)
REPRESENTATION_RELATIONSHIP_WITH_TRANSFORMATION(#15)
SHAPE_REPRESENTATION_RELATIONSHIP()
);
#22=(
REPRESENTATION_RELATIONSHIP($,$,#2081,#2075)
REPRESENTATION_RELATIONSHIP_WITH_TRANSFORMATION(#16)
SHAPE_REPRESENTATION_RELATIONSHIP()
);
#23=CONTEXT_DEPENDENT_SHAPE_REPRESENTATION(#17,#2069);
#24=CONTEXT_DEPENDENT_SHAPE_REPRESENTATION(#18,#2070);
#25=CONTEXT_DEPENDENT_SHAPE_REPRESENTATION(#19,#2071);
#26=CONTEXT_DEPENDENT_SHAPE_REPRESENTATION(#20,#2072);
#27=CONTEXT_DEPENDENT_SHAPE_REPRESENTATION(#21,#2073);
#28=CONTEXT_DEPENDENT_SHAPE_REPRESENTATION(#22,#2074);
#29=NEXT_ASSEMBLY_USAGE_OCCURRENCE('01_body_rear:1','01_body_rear:1',
'01_body_rear:1',#2083,#2084,'01_body_rear:1');
#30=NEXT_ASSEMBLY_USAGE_OCCURRENCE('03_roof_rear:1','03_roof_rear:1',
'03_roof_rear:1',#2083,#2085,'03_roof_rear:1');
#31=NEXT_ASSEMBLY_USAGE_OCCURRENCE('02_body_front:1','02_body_front:1',
'02_body_front:1',#2083,#2086,'02_body_front:1');
#32=NEXT_ASSEMBLY_USAGE_OCCURRENCE('04_roof_front:1','04_roof_front:1',
'04_roof_front:1',#2083,#2087,'04_roof_front:1');
#33=NEXT_ASSEMBLY_USAGE_OCCURRENCE('15_L1_yoke:1','15_L1_yoke:1',
'15_L1_yoke:1',#2083,#2088,'15_L1_yoke:1');
#34=NEXT_ASSEMBLY_USAGE_OCCURRENCE('18_laser_carrier:1',
'18_laser_carrier:1','18_laser_carrier:1',#2083,#2089,
'18_laser_carrier:1');
#35=FACE_BOUND('',#200,.T.);
#36=FACE_BOUND('',#206,.T.);
#37=FACE_BOUND('',#222,.T.);
#38=FACE_BOUND('',#228,.T.);
#39=CIRCLE('',#1302,1.5);
#40=CIRCLE('',#1303,1.5);
#41=CIRCLE('',#1307,10.);
#42=CIRCLE('',#1308,2.3);
#43=CIRCLE('',#1310,2.3);
#44=CIRCLE('',#1312,10.);
#45=CIRCLE('',#1319,1.5);
#46=CIRCLE('',#1321,1.5);
#47=CIRCLE('',#1327,6.3);
#48=CIRCLE('',#1328,8.2);
#49=CIRCLE('',#1331,6.3);
#50=CIRCLE('',#1332,6.3);
#51=CIRCLE('',#1333,6.3);
#52=CIRCLE('',#1335,2.3);
#53=CIRCLE('',#1337,2.3);
#54=CIRCLE('',#1339,2.3);
#55=CIRCLE('',#1340,2.3);
#56=CIRCLE('',#1342,8.2);
#57=CIRCLE('',#1343,8.2);
#58=CIRCLE('',#1345,10.);
#59=CIRCLE('',#1347,10.);
#60=CIRCLE('',#1351,8.2);
#61=CIRCLE('',#1354,8.2);
#62=CIRCLE('',#1355,8.2);
#63=CYLINDRICAL_SURFACE('',#1301,1.5);
#64=CYLINDRICAL_SURFACE('',#1309,2.3);
#65=CYLINDRICAL_SURFACE('',#1311,10.);
#66=CYLINDRICAL_SURFACE('',#1323,1.5);
#67=CYLINDRICAL_SURFACE('',#1330,6.3);
#68=CYLINDRICAL_SURFACE('',#1338,2.3);
#69=CYLINDRICAL_SURFACE('',#1346,10.);
#70=CYLINDRICAL_SURFACE('',#1353,8.2);
#71=SHAPE_REPRESENTATION_RELATIONSHIP('SRR','None',#2076,#77);
#72=SHAPE_REPRESENTATION_RELATIONSHIP('SRR','None',#2077,#78);
#73=SHAPE_REPRESENTATION_RELATIONSHIP('SRR','None',#2078,#79);
#74=SHAPE_REPRESENTATION_RELATIONSHIP('SRR','None',#2079,#80);
#75=SHAPE_REPRESENTATION_RELATIONSHIP('SRR','None',#2080,#81);
#76=SHAPE_REPRESENTATION_RELATIONSHIP('SRR','None',#2081,#82);
#77=ADVANCED_BREP_SHAPE_REPRESENTATION('',(#90),#2044);
#78=ADVANCED_BREP_SHAPE_REPRESENTATION('',(#91),#2045);
#79=ADVANCED_BREP_SHAPE_REPRESENTATION('',(#92),#2046);
#80=ADVANCED_BREP_SHAPE_REPRESENTATION('',(#93),#2047);
#81=ADVANCED_BREP_SHAPE_REPRESENTATION('',(#94,#95),#2048);
#82=ADVANCED_BREP_SHAPE_REPRESENTATION('',(#96),#2049);
#83=STYLED_ITEM('',(#2115),#90);
#84=STYLED_ITEM('',(#2115),#91);
#85=STYLED_ITEM('',(#2115),#92);
#86=STYLED_ITEM('',(#2115),#93);
#87=STYLED_ITEM('',(#2116),#94);
#88=STYLED_ITEM('',(#2116),#95);
#89=STYLED_ITEM('',(#2116),#96);
#90=MANIFOLD_SOLID_BREP('01_body_rear',#1187);
#91=MANIFOLD_SOLID_BREP('03_roof_rear',#1188);
#92=MANIFOLD_SOLID_BREP('02_body_front',#1189);
#93=MANIFOLD_SOLID_BREP('04_roof_front',#1190);
#94=MANIFOLD_SOLID_BREP('15_L1_yoke',#1191);
#95=MANIFOLD_SOLID_BREP('15_L1_yoke',#1192);
#96=MANIFOLD_SOLID_BREP('18_laser_carrier',#1193);
#97=FACE_OUTER_BOUND('',#162,.T.);
#98=FACE_OUTER_BOUND('',#163,.T.);
#99=FACE_OUTER_BOUND('',#164,.T.);
#100=FACE_OUTER_BOUND('',#165,.T.);
#101=FACE_OUTER_BOUND('',#166,.T.);
#102=FACE_OUTER_BOUND('',#167,.T.);
#103=FACE_OUTER_BOUND('',#168,.T.);
#104=FACE_OUTER_BOUND('',#169,.T.);
#105=FACE_OUTER_BOUND('',#170,.T.);
#106=FACE_OUTER_BOUND('',#171,.T.);
#107=FACE_OUTER_BOUND('',#172,.T.);
#108=FACE_OUTER_BOUND('',#173,.T.);
#109=FACE_OUTER_BOUND('',#174,.T.);
#110=FACE_OUTER_BOUND('',#175,.T.);
#111=FACE_OUTER_BOUND('',#176,.T.);
#112=FACE_OUTER_BOUND('',#177,.T.);
#113=FACE_OUTER_BOUND('',#178,.T.);
#114=FACE_OUTER_BOUND('',#179,.T.);
#115=FACE_OUTER_BOUND('',#180,.T.);
#116=FACE_OUTER_BOUND('',#181,.T.);
#117=FACE_OUTER_BOUND('',#182,.T.);
#118=FACE_OUTER_BOUND('',#183,.T.);
#119=FACE_OUTER_BOUND('',#184,.T.);
#120=FACE_OUTER_BOUND('',#185,.T.);
#121=FACE_OUTER_BOUND('',#186,.T.);
#122=FACE_OUTER_BOUND('',#187,.T.);
#123=FACE_OUTER_BOUND('',#188,.T.);
#124=FACE_OUTER_BOUND('',#189,.T.);
#125=FACE_OUTER_BOUND('',#190,.T.);
#126=FACE_OUTER_BOUND('',#191,.T.);
#127=FACE_OUTER_BOUND('',#192,.T.);
#128=FACE_OUTER_BOUND('',#193,.T.);
#129=FACE_OUTER_BOUND('',#194,.T.);
#130=FACE_OUTER_BOUND('',#195,.T.);
#131=FACE_OUTER_BOUND('',#196,.T.);
#132=FACE_OUTER_BOUND('',#197,.T.);
#133=FACE_OUTER_BOUND('',#198,.T.);
#134=FACE_OUTER_BOUND('',#199,.T.);
#135=FACE_OUTER_BOUND('',#201,.T.);
#136=FACE_OUTER_BOUND('',#202,.T.);
#137=FACE_OUTER_BOUND('',#203,.T.);
#138=FACE_OUTER_BOUND('',#204,.T.);
#139=FACE_OUTER_BOUND('',#205,.T.);
#140=FACE_OUTER_BOUND('',#207,.T.);
#141=FACE_OUTER_BOUND('',#208,.T.);
#142=FACE_OUTER_BOUND('',#209,.T.);
#143=FACE_OUTER_BOUND('',#210,.T.);
#144=FACE_OUTER_BOUND('',#211,.T.);
#145=FACE_OUTER_BOUND('',#212,.T.);
#146=FACE_OUTER_BOUND('',#213,.T.);
#147=FACE_OUTER_BOUND('',#214,.T.);
#148=FACE_OUTER_BOUND('',#215,.T.);
#149=FACE_OUTER_BOUND('',#216,.T.);
#150=FACE_OUTER_BOUND('',#217,.T.);
#151=FACE_OUTER_BOUND('',#218,.T.);
#152=FACE_OUTER_BOUND('',#219,.T.);
#153=FACE_OUTER_BOUND('',#220,.T.);
#154=FACE_OUTER_BOUND('',#221,.T.);
#155=FACE_OUTER_BOUND('',#223,.T.);
#156=FACE_OUTER_BOUND('',#224,.T.);
#157=FACE_OUTER_BOUND('',#225,.T.);
#158=FACE_OUTER_BOUND('',#226,.T.);
#159=FACE_OUTER_BOUND('',#227,.T.);
#160=FACE_OUTER_BOUND('',#229,.T.);
#161=FACE_OUTER_BOUND('',#230,.T.);
#162=EDGE_LOOP('',(#753,#754,#755,#756));
#163=EDGE_LOOP('',(#757,#758,#759,#760,#761,#762));
#164=EDGE_LOOP('',(#763,#764,#765,#766,#767,#768));
#165=EDGE_LOOP('',(#769,#770,#771,#772));
#166=EDGE_LOOP('',(#773,#774,#775,#776));
#167=EDGE_LOOP('',(#777,#778,#779,#780));
#168=EDGE_LOOP('',(#781,#782,#783,#784,#785,#786,#787,#788));
#169=EDGE_LOOP('',(#789,#790,#791,#792));
#170=EDGE_LOOP('',(#793,#794,#795,#796));
#171=EDGE_LOOP('',(#797,#798,#799,#800));
#172=EDGE_LOOP('',(#801,#802,#803,#804,#805,#806));
#173=EDGE_LOOP('',(#807,#808,#809,#810));
#174=EDGE_LOOP('',(#811,#812,#813,#814));
#175=EDGE_LOOP('',(#815,#816,#817,#818));
#176=EDGE_LOOP('',(#819,#820,#821,#822));
#177=EDGE_LOOP('',(#823,#824,#825,#826));
#178=EDGE_LOOP('',(#827,#828,#829,#830));
#179=EDGE_LOOP('',(#831,#832,#833,#834));
#180=EDGE_LOOP('',(#835,#836,#837,#838));
#181=EDGE_LOOP('',(#839,#840,#841,#842,#843,#844));
#182=EDGE_LOOP('',(#845,#846,#847,#848));
#183=EDGE_LOOP('',(#849,#850,#851,#852,#853,#854));
#184=EDGE_LOOP('',(#855,#856,#857,#858,#859,#860,#861,#862));
#185=EDGE_LOOP('',(#863,#864,#865,#866,#867,#868));
#186=EDGE_LOOP('',(#869,#870,#871,#872));
#187=EDGE_LOOP('',(#873,#874,#875,#876));
#188=EDGE_LOOP('',(#877,#878,#879,#880));
#189=EDGE_LOOP('',(#881,#882,#883,#884));
#190=EDGE_LOOP('',(#885,#886,#887,#888));
#191=EDGE_LOOP('',(#889,#890,#891,#892));
#192=EDGE_LOOP('',(#893,#894,#895,#896));
#193=EDGE_LOOP('',(#897,#898,#899,#900));
#194=EDGE_LOOP('',(#901,#902,#903,#904));
#195=EDGE_LOOP('',(#905,#906,#907,#908));
#196=EDGE_LOOP('',(#909,#910,#911,#912));
#197=EDGE_LOOP('',(#913,#914,#915,#916));
#198=EDGE_LOOP('',(#917,#918,#919,#920));
#199=EDGE_LOOP('',(#921,#922,#923,#924,#925,#926));
#200=EDGE_LOOP('',(#927));
#201=EDGE_LOOP('',(#928,#929,#930,#931));
#202=EDGE_LOOP('',(#932,#933,#934,#935));
#203=EDGE_LOOP('',(#936,#937,#938,#939));
#204=EDGE_LOOP('',(#940,#941,#942,#943));
#205=EDGE_LOOP('',(#944,#945,#946,#947,#948,#949));
#206=EDGE_LOOP('',(#950));
#207=EDGE_LOOP('',(#951,#952,#953,#954));
#208=EDGE_LOOP('',(#955,#956,#957,#958));
#209=EDGE_LOOP('',(#959,#960,#961,#962));
#210=EDGE_LOOP('',(#963,#964,#965,#966));
#211=EDGE_LOOP('',(#967,#968,#969,#970));
#212=EDGE_LOOP('',(#971,#972,#973,#974));
#213=EDGE_LOOP('',(#975,#976,#977,#978));
#214=EDGE_LOOP('',(#979,#980,#981,#982));
#215=EDGE_LOOP('',(#983,#984,#985,#986));
#216=EDGE_LOOP('',(#987,#988,#989,#990,#991,#992,#993,#994,#995,#996));
#217=EDGE_LOOP('',(#997,#998,#999));
#218=EDGE_LOOP('',(#1000,#1001,#1002));
#219=EDGE_LOOP('',(#1003,#1004,#1005,#1006,#1007,#1008,#1009,#1010));
#220=EDGE_LOOP('',(#1011,#1012,#1013,#1014,#1015,#1016,#1017,#1018,#1019,
#1020,#1021));
#221=EDGE_LOOP('',(#1022));
#222=EDGE_LOOP('',(#1023,#1024,#1025,#1026,#1027,#1028));
#223=EDGE_LOOP('',(#1029,#1030,#1031,#1032));
#224=EDGE_LOOP('',(#1033,#1034,#1035,#1036));
#225=EDGE_LOOP('',(#1037,#1038,#1039,#1040));
#226=EDGE_LOOP('',(#1041,#1042,#1043,#1044));
#227=EDGE_LOOP('',(#1045));
#228=EDGE_LOOP('',(#1046));
#229=EDGE_LOOP('',(#1047,#1048,#1049,#1050,#1051,#1052,#1053,#1054,#1055,
#1056,#1057,#1058));
#230=EDGE_LOOP('',(#1059,#1060,#1061,#1062,#1063,#1064));
#231=LINE('',#1704,#363);
#232=LINE('',#1706,#364);
#233=LINE('',#1708,#365);
#234=LINE('',#1709,#366);
#235=LINE('',#1713,#367);
#236=LINE('',#1714,#368);
#237=LINE('',#1716,#369);
#238=LINE('',#1718,#370);
#239=LINE('',#1719,#371);
#240=LINE('',#1722,#372);
#241=LINE('',#1724,#373);
#242=LINE('',#1726,#374);
#243=LINE('',#1728,#375);
#244=LINE('',#1729,#376);
#245=LINE('',#1732,#377);
#246=LINE('',#1733,#378);
#247=LINE('',#1736,#379);
#248=LINE('',#1737,#380);
#249=LINE('',#1739,#381);
#250=LINE('',#1742,#382);
#251=LINE('',#1744,#383);
#252=LINE('',#1745,#384);
#253=LINE('',#1748,#385);
#254=LINE('',#1749,#386);
#255=LINE('',#1752,#387);
#256=LINE('',#1753,#388);
#257=LINE('',#1755,#389);
#258=LINE('',#1761,#390);
#259=LINE('',#1763,#391);
#260=LINE('',#1765,#392);
#261=LINE('',#1766,#393);
#262=LINE('',#1770,#394);
#263=LINE('',#1772,#395);
#264=LINE('',#1774,#396);
#265=LINE('',#1775,#397);
#266=LINE('',#1777,#398);
#267=LINE('',#1778,#399);
#268=LINE('',#1780,#400);
#269=LINE('',#1782,#401);
#270=LINE('',#1788,#402);
#271=LINE('',#1790,#403);
#272=LINE('',#1792,#404);
#273=LINE('',#1793,#405);
#274=LINE('',#1796,#406);
#275=LINE('',#1798,#407);
#276=LINE('',#1799,#408);
#277=LINE('',#1803,#409);
#278=LINE('',#1805,#410);
#279=LINE('',#1807,#411);
#280=LINE('',#1809,#412);
#281=LINE('',#1811,#413);
#282=LINE('',#1812,#414);
#283=LINE('',#1816,#415);
#284=LINE('',#1817,#416);
#285=LINE('',#1818,#417);
#286=LINE('',#1820,#418);
#287=LINE('',#1821,#419);
#288=LINE('',#1823,#420);
#289=LINE('',#1825,#421);
#290=LINE('',#1827,#422);
#291=LINE('',#1828,#423);
#292=LINE('',#1831,#424);
#293=LINE('',#1832,#425);
#294=LINE('',#1836,#426);
#295=LINE('',#1837,#427);
#296=LINE('',#1839,#428);
#297=LINE('',#1845,#429);
#298=LINE('',#1847,#430);
#299=LINE('',#1849,#431);
#300=LINE('',#1850,#432);
#301=LINE('',#1854,#433);
#302=LINE('',#1856,#434);
#303=LINE('',#1858,#435);
#304=LINE('',#1859,#436);
#305=LINE('',#1861,#437);
#306=LINE('',#1862,#438);
#307=LINE('',#1864,#439);
#308=LINE('',#1866,#440);
#309=LINE('',#1872,#441);
#310=LINE('',#1876,#442);
#311=LINE('',#1880,#443);
#312=LINE('',#1882,#444);
#313=LINE('',#1883,#445);
#314=LINE('',#1886,#446);
#315=LINE('',#1888,#447);
#316=LINE('',#1889,#448);
#317=LINE('',#1894,#449);
#318=LINE('',#1895,#450);
#319=LINE('',#1900,#451);
#320=LINE('',#1905,#452);
#321=LINE('',#1908,#453);
#322=LINE('',#1909,#454);
#323=LINE('',#1911,#455);
#324=LINE('',#1916,#456);
#325=LINE('',#1918,#457);
#326=LINE('',#1920,#458);
#327=LINE('',#1921,#459);
#328=LINE('',#1925,#460);
#329=LINE('',#1926,#461);
#330=LINE('',#1927,#462);
#331=LINE('',#1931,#463);
#332=LINE('',#1935,#464);
#333=LINE('',#1937,#465);
#334=LINE('',#1943,#466);
#335=LINE('',#1945,#467);
#336=LINE('',#1947,#468);
#337=LINE('',#1948,#469);
#338=LINE('',#1953,#470);
#339=LINE('',#1957,#471);
#340=LINE('',#1959,#472);
#341=LINE('',#1960,#473);
#342=LINE('',#1965,#474);
#343=LINE('',#1967,#475);
#344=LINE('',#1970,#476);
#345=LINE('',#1973,#477);
#346=LINE('',#1977,#478);
#347=LINE('',#1981,#479);
#348=LINE('',#1984,#480);
#349=LINE('',#1986,#481);
#350=LINE('',#1990,#482);
#351=LINE('',#1992,#483);
#352=LINE('',#1998,#484);
#353=LINE('',#1999,#485);
#354=LINE('',#2004,#486);
#355=LINE('',#2006,#487);
#356=LINE('',#2007,#488);
#357=LINE('',#2011,#489);
#358=LINE('',#2014,#490);
#359=LINE('',#2015,#491);
#360=LINE('',#2018,#492);
#361=LINE('',#2019,#493);
#362=LINE('',#2026,#494);
#363=VECTOR('',#1369,10.);
#364=VECTOR('',#1370,10.);
#365=VECTOR('',#1371,10.);
#366=VECTOR('',#1372,10.);
#367=VECTOR('',#1375,10.);
#368=VECTOR('',#1376,10.);
#369=VECTOR('',#1377,10.);
#370=VECTOR('',#1378,10.);
#371=VECTOR('',#1379,10.);
#372=VECTOR('',#1382,10.);
#373=VECTOR('',#1383,10.);
#374=VECTOR('',#1384,10.);
#375=VECTOR('',#1385,10.);
#376=VECTOR('',#1386,10.);
#377=VECTOR('',#1389,10.);
#378=VECTOR('',#1390,10.);
#379=VECTOR('',#1393,10.);
#380=VECTOR('',#1394,10.);
#381=VECTOR('',#1397,10.);
#382=VECTOR('',#1400,10.);
#383=VECTOR('',#1401,10.);
#384=VECTOR('',#1402,10.);
#385=VECTOR('',#1405,10.);
#386=VECTOR('',#1406,10.);
#387=VECTOR('',#1409,10.);
#388=VECTOR('',#1410,10.);
#389=VECTOR('',#1413,10.);
#390=VECTOR('',#1420,10.);
#391=VECTOR('',#1421,10.);
#392=VECTOR('',#1422,10.);
#393=VECTOR('',#1423,10.);
#394=VECTOR('',#1426,10.);
#395=VECTOR('',#1427,10.);
#396=VECTOR('',#1428,10.);
#397=VECTOR('',#1429,10.);
#398=VECTOR('',#1432,10.);
#399=VECTOR('',#1433,10.);
#400=VECTOR('',#1436,10.);
#401=VECTOR('',#1439,10.);
#402=VECTOR('',#1446,10.);
#403=VECTOR('',#1447,10.);
#404=VECTOR('',#1448,10.);
#405=VECTOR('',#1449,10.);
#406=VECTOR('',#1452,10.);
#407=VECTOR('',#1453,10.);
#408=VECTOR('',#1454,10.);
#409=VECTOR('',#1457,10.);
#410=VECTOR('',#1458,10.);
#411=VECTOR('',#1459,10.);
#412=VECTOR('',#1460,10.);
#413=VECTOR('',#1461,10.);
#414=VECTOR('',#1462,10.);
#415=VECTOR('',#1465,10.);
#416=VECTOR('',#1466,10.);
#417=VECTOR('',#1467,10.);
#418=VECTOR('',#1470,10.);
#419=VECTOR('',#1471,10.);
#420=VECTOR('',#1474,10.);
#421=VECTOR('',#1475,10.);
#422=VECTOR('',#1476,10.);
#423=VECTOR('',#1477,10.);
#424=VECTOR('',#1480,10.);
#425=VECTOR('',#1481,10.);
#426=VECTOR('',#1486,10.);
#427=VECTOR('',#1487,10.);
#428=VECTOR('',#1490,10.);
#429=VECTOR('',#1497,10.);
#430=VECTOR('',#1498,10.);
#431=VECTOR('',#1499,10.);
#432=VECTOR('',#1500,10.);
#433=VECTOR('',#1503,10.);
#434=VECTOR('',#1504,10.);
#435=VECTOR('',#1505,10.);
#436=VECTOR('',#1506,10.);
#437=VECTOR('',#1509,10.);
#438=VECTOR('',#1510,10.);
#439=VECTOR('',#1513,10.);
#440=VECTOR('',#1516,10.);
#441=VECTOR('',#1523,10.);
#442=VECTOR('',#1526,10.);
#443=VECTOR('',#1531,10.);
#444=VECTOR('',#1532,10.);
#445=VECTOR('',#1533,10.);
#446=VECTOR('',#1536,10.);
#447=VECTOR('',#1537,10.);
#448=VECTOR('',#1538,10.);
#449=VECTOR('',#1543,10.);
#450=VECTOR('',#1544,10.);
#451=VECTOR('',#1549,2.3);
#452=VECTOR('',#1556,10.);
#453=VECTOR('',#1559,10.);
#454=VECTOR('',#1560,10.);
#455=VECTOR('',#1563,10.);
#456=VECTOR('',#1568,10.);
#457=VECTOR('',#1569,10.);
#458=VECTOR('',#1570,10.);
#459=VECTOR('',#1571,10.);
#460=VECTOR('',#1574,10.);
#461=VECTOR('',#1575,10.);
#462=VECTOR('',#1576,10.);
#463=VECTOR('',#1581,10.);
#464=VECTOR('',#1586,10.);
#465=VECTOR('',#1589,10.);
#466=VECTOR('',#1596,10.);
#467=VECTOR('',#1597,10.);
#468=VECTOR('',#1598,10.);
#469=VECTOR('',#1599,10.);
#470=VECTOR('',#1604,10.);
#471=VECTOR('',#1609,10.);
#472=VECTOR('',#1610,10.);
#473=VECTOR('',#1611,10.);
#474=VECTOR('',#1616,10.);
#475=VECTOR('',#1617,6.3);
#476=VECTOR('',#1622,10.);
#477=VECTOR('',#1625,10.);
#478=VECTOR('',#1630,10.);
#479=VECTOR('',#1635,10.);
#480=VECTOR('',#1638,10.);
#481=VECTOR('',#1639,2.3);
#482=VECTOR('',#1644,10.);
#483=VECTOR('',#1645,10.);
#484=VECTOR('',#1650,10.);
#485=VECTOR('',#1651,10.);
#486=VECTOR('',#1656,10.);
#487=VECTOR('',#1657,10.);
#488=VECTOR('',#1658,10.);
#489=VECTOR('',#1663,10.);
#490=VECTOR('',#1666,10.);
#491=VECTOR('',#1667,10.);
#492=VECTOR('',#1670,10.);
#493=VECTOR('',#1671,10.);
#494=VECTOR('',#1682,8.2);
#495=VERTEX_POINT('',#1702);
#496=VERTEX_POINT('',#1703);
#497=VERTEX_POINT('',#1705);
#498=VERTEX_POINT('',#1707);
#499=VERTEX_POINT('',#1711);
#500=VERTEX_POINT('',#1712);
#501=VERTEX_POINT('',#1715);
#502=VERTEX_POINT('',#1717);
#503=VERTEX_POINT('',#1721);
#504=VERTEX_POINT('',#1723);
#505=VERTEX_POINT('',#1725);
#506=VERTEX_POINT('',#1727);
#507=VERTEX_POINT('',#1731);
#508=VERTEX_POINT('',#1735);
#509=VERTEX_POINT('',#1741);
#510=VERTEX_POINT('',#1743);
#511=VERTEX_POINT('',#1747);
#512=VERTEX_POINT('',#1751);
#513=VERTEX_POINT('',#1759);
#514=VERTEX_POINT('',#1760);
#515=VERTEX_POINT('',#1762);
#516=VERTEX_POINT('',#1764);
#517=VERTEX_POINT('',#1768);
#518=VERTEX_POINT('',#1769);
#519=VERTEX_POINT('',#1771);
#520=VERTEX_POINT('',#1773);
#521=VERTEX_POINT('',#1786);
#522=VERTEX_POINT('',#1787);
#523=VERTEX_POINT('',#1789);
#524=VERTEX_POINT('',#1791);
#525=VERTEX_POINT('',#1795);
#526=VERTEX_POINT('',#1797);
#527=VERTEX_POINT('',#1801);
#528=VERTEX_POINT('',#1802);
#529=VERTEX_POINT('',#1804);
#530=VERTEX_POINT('',#1806);
#531=VERTEX_POINT('',#1808);
#532=VERTEX_POINT('',#1810);
#533=VERTEX_POINT('',#1814);
#534=VERTEX_POINT('',#1815);
#535=VERTEX_POINT('',#1824);
#536=VERTEX_POINT('',#1826);
#537=VERTEX_POINT('',#1830);
#538=VERTEX_POINT('',#1835);
#539=VERTEX_POINT('',#1843);
#540=VERTEX_POINT('',#1844);
#541=VERTEX_POINT('',#1846);
#542=VERTEX_POINT('',#1848);
#543=VERTEX_POINT('',#1852);
#544=VERTEX_POINT('',#1853);
#545=VERTEX_POINT('',#1855);
#546=VERTEX_POINT('',#1857);
#547=VERTEX_POINT('',#1870);
#548=VERTEX_POINT('',#1871);
#549=VERTEX_POINT('',#1873);
#550=VERTEX_POINT('',#1875);
#551=VERTEX_POINT('',#1879);
#552=VERTEX_POINT('',#1881);
#553=VERTEX_POINT('',#1885);
#554=VERTEX_POINT('',#1887);
#555=VERTEX_POINT('',#1891);
#556=VERTEX_POINT('',#1893);
#557=VERTEX_POINT('',#1896);
#558=VERTEX_POINT('',#1899);
#559=VERTEX_POINT('',#1903);
#560=VERTEX_POINT('',#1907);
#561=VERTEX_POINT('',#1914);
#562=VERTEX_POINT('',#1915);
#563=VERTEX_POINT('',#1917);
#564=VERTEX_POINT('',#1919);
#565=VERTEX_POINT('',#1923);
#566=VERTEX_POINT('',#1924);
#567=VERTEX_POINT('',#1929);
#568=VERTEX_POINT('',#1933);
#569=VERTEX_POINT('',#1941);
#570=VERTEX_POINT('',#1942);
#571=VERTEX_POINT('',#1944);
#572=VERTEX_POINT('',#1946);
#573=VERTEX_POINT('',#1950);
#574=VERTEX_POINT('',#1952);
#575=VERTEX_POINT('',#1956);
#576=VERTEX_POINT('',#1958);
#577=VERTEX_POINT('',#1962);
#578=VERTEX_POINT('',#1964);
#579=VERTEX_POINT('',#1966);
#580=VERTEX_POINT('',#1972);
#581=VERTEX_POINT('',#1976);
#582=VERTEX_POINT('',#1980);
#583=VERTEX_POINT('',#1982);
#584=VERTEX_POINT('',#1985);
#585=VERTEX_POINT('',#1989);
#586=VERTEX_POINT('',#1991);
#587=VERTEX_POINT('',#1993);
#588=VERTEX_POINT('',#1995);
#589=VERTEX_POINT('',#1997);
#590=VERTEX_POINT('',#2001);
#591=VERTEX_POINT('',#2003);
#592=VERTEX_POINT('',#2005);
#593=VERTEX_POINT('',#2009);
#594=VERTEX_POINT('',#2013);
#595=VERTEX_POINT('',#2017);
#596=VERTEX_POINT('',#2024);
#597=EDGE_CURVE('',#495,#496,#231,.T.);
#598=EDGE_CURVE('',#497,#495,#232,.T.);
#599=EDGE_CURVE('',#498,#497,#233,.T.);
#600=EDGE_CURVE('',#498,#496,#234,.T.);
#601=EDGE_CURVE('',#499,#500,#235,.T.);
#602=EDGE_CURVE('',#496,#500,#236,.T.);
#603=EDGE_CURVE('',#498,#501,#237,.T.);
#604=EDGE_CURVE('',#501,#502,#238,.T.);
#605=EDGE_CURVE('',#502,#499,#239,.T.);
#606=EDGE_CURVE('',#503,#499,#240,.T.);
#607=EDGE_CURVE('',#504,#503,#241,.T.);
#608=EDGE_CURVE('',#504,#505,#242,.T.);
#609=EDGE_CURVE('',#506,#505,#243,.T.);
#610=EDGE_CURVE('',#500,#506,#244,.T.);
#611=EDGE_CURVE('',#507,#497,#245,.T.);
#612=EDGE_CURVE('',#507,#501,#246,.T.);
#613=EDGE_CURVE('',#508,#507,#247,.T.);
#614=EDGE_CURVE('',#502,#508,#248,.T.);
#615=EDGE_CURVE('',#503,#508,#249,.T.);
#616=EDGE_CURVE('',#495,#509,#250,.T.);
#617=EDGE_CURVE('',#509,#510,#251,.T.);
#618=EDGE_CURVE('',#510,#504,#252,.T.);
#619=EDGE_CURVE('',#510,#511,#253,.T.);
#620=EDGE_CURVE('',#505,#511,#254,.T.);
#621=EDGE_CURVE('',#509,#512,#255,.T.);
#622=EDGE_CURVE('',#511,#512,#256,.T.);
#623=EDGE_CURVE('',#512,#506,#257,.T.);
#624=EDGE_CURVE('',#513,#514,#258,.T.);
#625=EDGE_CURVE('',#514,#515,#259,.T.);
#626=EDGE_CURVE('',#515,#516,#260,.T.);
#627=EDGE_CURVE('',#516,#513,#261,.T.);
#628=EDGE_CURVE('',#517,#518,#262,.T.);
#629=EDGE_CURVE('',#518,#519,#263,.T.);
#630=EDGE_CURVE('',#519,#520,#264,.T.);
#631=EDGE_CURVE('',#520,#517,#265,.T.);
#632=EDGE_CURVE('',#516,#519,#266,.T.);
#633=EDGE_CURVE('',#513,#518,#267,.T.);
#634=EDGE_CURVE('',#515,#520,#268,.T.);
#635=EDGE_CURVE('',#514,#517,#269,.T.);
#636=EDGE_CURVE('',#521,#522,#270,.T.);
#637=EDGE_CURVE('',#523,#521,#271,.T.);
#638=EDGE_CURVE('',#524,#523,#272,.T.);
#639=EDGE_CURVE('',#524,#522,#273,.T.);
#640=EDGE_CURVE('',#525,#522,#274,.T.);
#641=EDGE_CURVE('',#525,#526,#275,.T.);
#642=EDGE_CURVE('',#521,#526,#276,.T.);
#643=EDGE_CURVE('',#527,#528,#277,.T.);
#644=EDGE_CURVE('',#527,#529,#278,.T.);
#645=EDGE_CURVE('',#530,#529,#279,.T.);
#646=EDGE_CURVE('',#531,#530,#280,.T.);
#647=EDGE_CURVE('',#532,#531,#281,.T.);
#648=EDGE_CURVE('',#532,#528,#282,.T.);
#649=EDGE_CURVE('',#533,#534,#283,.T.);
#650=EDGE_CURVE('',#526,#533,#284,.T.);
#651=EDGE_CURVE('',#534,#525,#285,.T.);
#652=EDGE_CURVE('',#528,#534,#286,.T.);
#653=EDGE_CURVE('',#527,#524,#287,.T.);
#654=EDGE_CURVE('',#533,#532,#288,.T.);
#655=EDGE_CURVE('',#531,#535,#289,.T.);
#656=EDGE_CURVE('',#535,#536,#290,.T.);
#657=EDGE_CURVE('',#536,#523,#291,.T.);
#658=EDGE_CURVE('',#536,#537,#292,.T.);
#659=EDGE_CURVE('',#529,#537,#293,.T.);
#660=EDGE_CURVE('',#535,#538,#294,.T.);
#661=EDGE_CURVE('',#537,#538,#295,.T.);
#662=EDGE_CURVE('',#538,#530,#296,.T.);
#663=EDGE_CURVE('',#539,#540,#297,.T.);
#664=EDGE_CURVE('',#540,#541,#298,.T.);
#665=EDGE_CURVE('',#541,#542,#299,.T.);
#666=EDGE_CURVE('',#542,#539,#300,.T.);
#667=EDGE_CURVE('',#543,#544,#301,.T.);
#668=EDGE_CURVE('',#544,#545,#302,.T.);
#669=EDGE_CURVE('',#545,#546,#303,.T.);
#670=EDGE_CURVE('',#546,#543,#304,.T.);
#671=EDGE_CURVE('',#542,#545,#305,.T.);
#672=EDGE_CURVE('',#539,#544,#306,.T.);
#673=EDGE_CURVE('',#541,#546,#307,.T.);
#674=EDGE_CURVE('',#540,#543,#308,.T.);
#675=EDGE_CURVE('',#547,#548,#309,.T.);
#676=EDGE_CURVE('',#549,#548,#39,.T.);
#677=EDGE_CURVE('',#550,#549,#310,.T.);
#678=EDGE_CURVE('',#547,#550,#40,.T.);
#679=EDGE_CURVE('',#551,#548,#311,.T.);
#680=EDGE_CURVE('',#551,#552,#312,.T.);
#681=EDGE_CURVE('',#552,#549,#313,.T.);
#682=EDGE_CURVE('',#553,#550,#314,.T.);
#683=EDGE_CURVE('',#553,#554,#315,.T.);
#684=EDGE_CURVE('',#554,#547,#316,.T.);
#685=EDGE_CURVE('',#554,#555,#41,.T.);
#686=EDGE_CURVE('',#555,#556,#317,.T.);
#687=EDGE_CURVE('',#551,#556,#318,.T.);
#688=EDGE_CURVE('',#557,#557,#42,.T.);
#689=EDGE_CURVE('',#557,#558,#319,.T.);
#690=EDGE_CURVE('',#558,#558,#43,.T.);
#691=EDGE_CURVE('',#559,#553,#44,.T.);
#692=EDGE_CURVE('',#555,#559,#320,.T.);
#693=EDGE_CURVE('',#559,#560,#321,.T.);
#694=EDGE_CURVE('',#556,#560,#322,.T.);
#695=EDGE_CURVE('',#560,#552,#323,.T.);
#696=EDGE_CURVE('',#561,#562,#324,.T.);
#697=EDGE_CURVE('',#562,#563,#325,.T.);
#698=EDGE_CURVE('',#563,#564,#326,.T.);
#699=EDGE_CURVE('',#564,#561,#327,.T.);
#700=EDGE_CURVE('',#565,#566,#328,.T.);
#701=EDGE_CURVE('',#566,#564,#329,.T.);
#702=EDGE_CURVE('',#565,#563,#330,.T.);
#703=EDGE_CURVE('',#567,#565,#45,.T.);
#704=EDGE_CURVE('',#567,#562,#331,.T.);
#705=EDGE_CURVE('',#566,#568,#46,.T.);
#706=EDGE_CURVE('',#568,#561,#332,.T.);
#707=EDGE_CURVE('',#567,#568,#333,.T.);
#708=EDGE_CURVE('',#569,#570,#334,.T.);
#709=EDGE_CURVE('',#569,#571,#335,.T.);
#710=EDGE_CURVE('',#572,#571,#336,.T.);
#711=EDGE_CURVE('',#570,#572,#337,.T.);
#712=EDGE_CURVE('',#573,#569,#47,.T.);
#713=EDGE_CURVE('',#574,#573,#338,.T.);
#714=EDGE_CURVE('',#571,#574,#48,.T.);
#715=EDGE_CURVE('',#575,#573,#339,.T.);
#716=EDGE_CURVE('',#576,#575,#340,.T.);
#717=EDGE_CURVE('',#574,#576,#341,.T.);
#718=EDGE_CURVE('',#577,#577,#49,.T.);
#719=EDGE_CURVE('',#578,#577,#342,.T.);
#720=EDGE_CURVE('',#578,#579,#343,.T.);
#721=EDGE_CURVE('',#575,#579,#50,.T.);
#722=EDGE_CURVE('',#579,#570,#51,.T.);
#723=EDGE_CURVE('',#578,#577,#344,.T.);
#724=EDGE_CURVE('',#577,#580,#345,.T.);
#725=EDGE_CURVE('',#580,#578,#52,.T.);
#726=EDGE_CURVE('',#581,#577,#346,.T.);
#727=EDGE_CURVE('',#578,#581,#53,.T.);
#728=EDGE_CURVE('',#582,#581,#347,.T.);
#729=EDGE_CURVE('',#583,#582,#54,.T.);
#730=EDGE_CURVE('',#580,#583,#348,.T.);
#731=EDGE_CURVE('',#578,#584,#349,.T.);
#732=EDGE_CURVE('',#584,#584,#55,.T.);
#733=EDGE_CURVE('',#583,#585,#350,.T.);
#734=EDGE_CURVE('',#585,#586,#351,.T.);
#735=EDGE_CURVE('',#586,#587,#56,.T.);
#736=EDGE_CURVE('',#587,#588,#57,.T.);
#737=EDGE_CURVE('',#588,#589,#352,.T.);
#738=EDGE_CURVE('',#589,#582,#353,.T.);
#739=EDGE_CURVE('',#590,#590,#58,.T.);
#740=EDGE_CURVE('',#591,#589,#354,.T.);
#741=EDGE_CURVE('',#592,#591,#355,.T.);
#742=EDGE_CURVE('',#585,#592,#356,.T.);
#743=EDGE_CURVE('',#593,#593,#59,.T.);
#744=EDGE_CURVE('',#593,#590,#357,.T.);
#745=EDGE_CURVE('',#594,#588,#358,.T.);
#746=EDGE_CURVE('',#591,#594,#359,.T.);
#747=EDGE_CURVE('',#595,#592,#360,.T.);
#748=EDGE_CURVE('',#586,#595,#361,.T.);
#749=EDGE_CURVE('',#595,#594,#60,.T.);
#750=EDGE_CURVE('',#596,#576,#61,.T.);
#751=EDGE_CURVE('',#596,#587,#362,.T.);
#752=EDGE_CURVE('',#572,#596,#62,.T.);
#753=ORIENTED_EDGE('',*,*,#597,.F.);
#754=ORIENTED_EDGE('',*,*,#598,.F.);
#755=ORIENTED_EDGE('',*,*,#599,.F.);
#756=ORIENTED_EDGE('',*,*,#600,.T.);
#757=ORIENTED_EDGE('',*,*,#601,.T.);
#758=ORIENTED_EDGE('',*,*,#602,.F.);
#759=ORIENTED_EDGE('',*,*,#600,.F.);
#760=ORIENTED_EDGE('',*,*,#603,.T.);
#761=ORIENTED_EDGE('',*,*,#604,.T.);
#762=ORIENTED_EDGE('',*,*,#605,.T.);
#763=ORIENTED_EDGE('',*,*,#601,.F.);
#764=ORIENTED_EDGE('',*,*,#606,.F.);
#765=ORIENTED_EDGE('',*,*,#607,.F.);
#766=ORIENTED_EDGE('',*,*,#608,.T.);
#767=ORIENTED_EDGE('',*,*,#609,.F.);
#768=ORIENTED_EDGE('',*,*,#610,.F.);
#769=ORIENTED_EDGE('',*,*,#599,.T.);
#770=ORIENTED_EDGE('',*,*,#611,.F.);
#771=ORIENTED_EDGE('',*,*,#612,.T.);
#772=ORIENTED_EDGE('',*,*,#603,.F.);
#773=ORIENTED_EDGE('',*,*,#612,.F.);
#774=ORIENTED_EDGE('',*,*,#613,.F.);
#775=ORIENTED_EDGE('',*,*,#614,.F.);
#776=ORIENTED_EDGE('',*,*,#604,.F.);
#777=ORIENTED_EDGE('',*,*,#614,.T.);
#778=ORIENTED_EDGE('',*,*,#615,.F.);
#779=ORIENTED_EDGE('',*,*,#606,.T.);
#780=ORIENTED_EDGE('',*,*,#605,.F.);
#781=ORIENTED_EDGE('',*,*,#598,.T.);
#782=ORIENTED_EDGE('',*,*,#616,.T.);
#783=ORIENTED_EDGE('',*,*,#617,.T.);
#784=ORIENTED_EDGE('',*,*,#618,.T.);
#785=ORIENTED_EDGE('',*,*,#607,.T.);
#786=ORIENTED_EDGE('',*,*,#615,.T.);
#787=ORIENTED_EDGE('',*,*,#613,.T.);
#788=ORIENTED_EDGE('',*,*,#611,.T.);
#789=ORIENTED_EDGE('',*,*,#618,.F.);
#790=ORIENTED_EDGE('',*,*,#619,.T.);
#791=ORIENTED_EDGE('',*,*,#620,.F.);
#792=ORIENTED_EDGE('',*,*,#608,.F.);
#793=ORIENTED_EDGE('',*,*,#617,.F.);
#794=ORIENTED_EDGE('',*,*,#621,.T.);
#795=ORIENTED_EDGE('',*,*,#622,.F.);
#796=ORIENTED_EDGE('',*,*,#619,.F.);
#797=ORIENTED_EDGE('',*,*,#609,.T.);
#798=ORIENTED_EDGE('',*,*,#620,.T.);
#799=ORIENTED_EDGE('',*,*,#622,.T.);
#800=ORIENTED_EDGE('',*,*,#623,.T.);
#801=ORIENTED_EDGE('',*,*,#602,.T.);
#802=ORIENTED_EDGE('',*,*,#610,.T.);
#803=ORIENTED_EDGE('',*,*,#623,.F.);
#804=ORIENTED_EDGE('',*,*,#621,.F.);
#805=ORIENTED_EDGE('',*,*,#616,.F.);
#806=ORIENTED_EDGE('',*,*,#597,.T.);
#807=ORIENTED_EDGE('',*,*,#624,.T.);
#808=ORIENTED_EDGE('',*,*,#625,.T.);
#809=ORIENTED_EDGE('',*,*,#626,.T.);
#810=ORIENTED_EDGE('',*,*,#627,.T.);
#811=ORIENTED_EDGE('',*,*,#628,.T.);
#812=ORIENTED_EDGE('',*,*,#629,.T.);
#813=ORIENTED_EDGE('',*,*,#630,.T.);
#814=ORIENTED_EDGE('',*,*,#631,.T.);
#815=ORIENTED_EDGE('',*,*,#632,.T.);
#816=ORIENTED_EDGE('',*,*,#629,.F.);
#817=ORIENTED_EDGE('',*,*,#633,.F.);
#818=ORIENTED_EDGE('',*,*,#627,.F.);
#819=ORIENTED_EDGE('',*,*,#634,.T.);
#820=ORIENTED_EDGE('',*,*,#630,.F.);
#821=ORIENTED_EDGE('',*,*,#632,.F.);
#822=ORIENTED_EDGE('',*,*,#626,.F.);
#823=ORIENTED_EDGE('',*,*,#635,.T.);
#824=ORIENTED_EDGE('',*,*,#631,.F.);
#825=ORIENTED_EDGE('',*,*,#634,.F.);
#826=ORIENTED_EDGE('',*,*,#625,.F.);
#827=ORIENTED_EDGE('',*,*,#633,.T.);
#828=ORIENTED_EDGE('',*,*,#628,.F.);
#829=ORIENTED_EDGE('',*,*,#635,.F.);
#830=ORIENTED_EDGE('',*,*,#624,.F.);
#831=ORIENTED_EDGE('',*,*,#636,.F.);
#832=ORIENTED_EDGE('',*,*,#637,.F.);
#833=ORIENTED_EDGE('',*,*,#638,.F.);
#834=ORIENTED_EDGE('',*,*,#639,.T.);
#835=ORIENTED_EDGE('',*,*,#636,.T.);
#836=ORIENTED_EDGE('',*,*,#640,.F.);
#837=ORIENTED_EDGE('',*,*,#641,.T.);
#838=ORIENTED_EDGE('',*,*,#642,.F.);
#839=ORIENTED_EDGE('',*,*,#643,.F.);
#840=ORIENTED_EDGE('',*,*,#644,.T.);
#841=ORIENTED_EDGE('',*,*,#645,.F.);
#842=ORIENTED_EDGE('',*,*,#646,.F.);
#843=ORIENTED_EDGE('',*,*,#647,.F.);
#844=ORIENTED_EDGE('',*,*,#648,.T.);
#845=ORIENTED_EDGE('',*,*,#649,.F.);
#846=ORIENTED_EDGE('',*,*,#650,.F.);
#847=ORIENTED_EDGE('',*,*,#641,.F.);
#848=ORIENTED_EDGE('',*,*,#651,.F.);
#849=ORIENTED_EDGE('',*,*,#643,.T.);
#850=ORIENTED_EDGE('',*,*,#652,.T.);
#851=ORIENTED_EDGE('',*,*,#651,.T.);
#852=ORIENTED_EDGE('',*,*,#640,.T.);
#853=ORIENTED_EDGE('',*,*,#639,.F.);
#854=ORIENTED_EDGE('',*,*,#653,.F.);
#855=ORIENTED_EDGE('',*,*,#637,.T.);
#856=ORIENTED_EDGE('',*,*,#642,.T.);
#857=ORIENTED_EDGE('',*,*,#650,.T.);
#858=ORIENTED_EDGE('',*,*,#654,.T.);
#859=ORIENTED_EDGE('',*,*,#647,.T.);
#860=ORIENTED_EDGE('',*,*,#655,.T.);
#861=ORIENTED_EDGE('',*,*,#656,.T.);
#862=ORIENTED_EDGE('',*,*,#657,.T.);
#863=ORIENTED_EDGE('',*,*,#638,.T.);
#864=ORIENTED_EDGE('',*,*,#657,.F.);
#865=ORIENTED_EDGE('',*,*,#658,.T.);
#866=ORIENTED_EDGE('',*,*,#659,.F.);
#867=ORIENTED_EDGE('',*,*,#644,.F.);
#868=ORIENTED_EDGE('',*,*,#653,.T.);
#869=ORIENTED_EDGE('',*,*,#649,.T.);
#870=ORIENTED_EDGE('',*,*,#652,.F.);
#871=ORIENTED_EDGE('',*,*,#648,.F.);
#872=ORIENTED_EDGE('',*,*,#654,.F.);
#873=ORIENTED_EDGE('',*,*,#656,.F.);
#874=ORIENTED_EDGE('',*,*,#660,.T.);
#875=ORIENTED_EDGE('',*,*,#661,.F.);
#876=ORIENTED_EDGE('',*,*,#658,.F.);
#877=ORIENTED_EDGE('',*,*,#661,.T.);
#878=ORIENTED_EDGE('',*,*,#662,.T.);
#879=ORIENTED_EDGE('',*,*,#645,.T.);
#880=ORIENTED_EDGE('',*,*,#659,.T.);
#881=ORIENTED_EDGE('',*,*,#655,.F.);
#882=ORIENTED_EDGE('',*,*,#646,.T.);
#883=ORIENTED_EDGE('',*,*,#662,.F.);
#884=ORIENTED_EDGE('',*,*,#660,.F.);
#885=ORIENTED_EDGE('',*,*,#663,.T.);
#886=ORIENTED_EDGE('',*,*,#664,.T.);
#887=ORIENTED_EDGE('',*,*,#665,.T.);
#888=ORIENTED_EDGE('',*,*,#666,.T.);
#889=ORIENTED_EDGE('',*,*,#667,.T.);
#890=ORIENTED_EDGE('',*,*,#668,.T.);
#891=ORIENTED_EDGE('',*,*,#669,.T.);
#892=ORIENTED_EDGE('',*,*,#670,.T.);
#893=ORIENTED_EDGE('',*,*,#671,.T.);
#894=ORIENTED_EDGE('',*,*,#668,.F.);
#895=ORIENTED_EDGE('',*,*,#672,.F.);
#896=ORIENTED_EDGE('',*,*,#666,.F.);
#897=ORIENTED_EDGE('',*,*,#673,.T.);
#898=ORIENTED_EDGE('',*,*,#669,.F.);
#899=ORIENTED_EDGE('',*,*,#671,.F.);
#900=ORIENTED_EDGE('',*,*,#665,.F.);
#901=ORIENTED_EDGE('',*,*,#674,.T.);
#902=ORIENTED_EDGE('',*,*,#670,.F.);
#903=ORIENTED_EDGE('',*,*,#673,.F.);
#904=ORIENTED_EDGE('',*,*,#664,.F.);
#905=ORIENTED_EDGE('',*,*,#672,.T.);
#906=ORIENTED_EDGE('',*,*,#667,.F.);
#907=ORIENTED_EDGE('',*,*,#674,.F.);
#908=ORIENTED_EDGE('',*,*,#663,.F.);
#909=ORIENTED_EDGE('',*,*,#675,.T.);
#910=ORIENTED_EDGE('',*,*,#676,.F.);
#911=ORIENTED_EDGE('',*,*,#677,.F.);
#912=ORIENTED_EDGE('',*,*,#678,.F.);
#913=ORIENTED_EDGE('',*,*,#676,.T.);
#914=ORIENTED_EDGE('',*,*,#679,.F.);
#915=ORIENTED_EDGE('',*,*,#680,.T.);
#916=ORIENTED_EDGE('',*,*,#681,.T.);
#917=ORIENTED_EDGE('',*,*,#678,.T.);
#918=ORIENTED_EDGE('',*,*,#682,.F.);
#919=ORIENTED_EDGE('',*,*,#683,.T.);
#920=ORIENTED_EDGE('',*,*,#684,.T.);
#921=ORIENTED_EDGE('',*,*,#675,.F.);
#922=ORIENTED_EDGE('',*,*,#684,.F.);
#923=ORIENTED_EDGE('',*,*,#685,.T.);
#924=ORIENTED_EDGE('',*,*,#686,.T.);
#925=ORIENTED_EDGE('',*,*,#687,.F.);
#926=ORIENTED_EDGE('',*,*,#679,.T.);
#927=ORIENTED_EDGE('',*,*,#688,.T.);
#928=ORIENTED_EDGE('',*,*,#688,.F.);
#929=ORIENTED_EDGE('',*,*,#689,.T.);
#930=ORIENTED_EDGE('',*,*,#690,.F.);
#931=ORIENTED_EDGE('',*,*,#689,.F.);
#932=ORIENTED_EDGE('',*,*,#683,.F.);
#933=ORIENTED_EDGE('',*,*,#691,.F.);
#934=ORIENTED_EDGE('',*,*,#692,.F.);
#935=ORIENTED_EDGE('',*,*,#685,.F.);
#936=ORIENTED_EDGE('',*,*,#692,.T.);
#937=ORIENTED_EDGE('',*,*,#693,.T.);
#938=ORIENTED_EDGE('',*,*,#694,.F.);
#939=ORIENTED_EDGE('',*,*,#686,.F.);
#940=ORIENTED_EDGE('',*,*,#680,.F.);
#941=ORIENTED_EDGE('',*,*,#687,.T.);
#942=ORIENTED_EDGE('',*,*,#694,.T.);
#943=ORIENTED_EDGE('',*,*,#695,.T.);
#944=ORIENTED_EDGE('',*,*,#677,.T.);
#945=ORIENTED_EDGE('',*,*,#681,.F.);
#946=ORIENTED_EDGE('',*,*,#695,.F.);
#947=ORIENTED_EDGE('',*,*,#693,.F.);
#948=ORIENTED_EDGE('',*,*,#691,.T.);
#949=ORIENTED_EDGE('',*,*,#682,.T.);
#950=ORIENTED_EDGE('',*,*,#690,.T.);
#951=ORIENTED_EDGE('',*,*,#696,.T.);
#952=ORIENTED_EDGE('',*,*,#697,.T.);
#953=ORIENTED_EDGE('',*,*,#698,.T.);
#954=ORIENTED_EDGE('',*,*,#699,.T.);
#955=ORIENTED_EDGE('',*,*,#700,.T.);
#956=ORIENTED_EDGE('',*,*,#701,.T.);
#957=ORIENTED_EDGE('',*,*,#698,.F.);
#958=ORIENTED_EDGE('',*,*,#702,.F.);
#959=ORIENTED_EDGE('',*,*,#703,.T.);
#960=ORIENTED_EDGE('',*,*,#702,.T.);
#961=ORIENTED_EDGE('',*,*,#697,.F.);
#962=ORIENTED_EDGE('',*,*,#704,.F.);
#963=ORIENTED_EDGE('',*,*,#705,.T.);
#964=ORIENTED_EDGE('',*,*,#706,.T.);
#965=ORIENTED_EDGE('',*,*,#699,.F.);
#966=ORIENTED_EDGE('',*,*,#701,.F.);
#967=ORIENTED_EDGE('',*,*,#707,.F.);
#968=ORIENTED_EDGE('',*,*,#704,.T.);
#969=ORIENTED_EDGE('',*,*,#696,.F.);
#970=ORIENTED_EDGE('',*,*,#706,.F.);
#971=ORIENTED_EDGE('',*,*,#700,.F.);
#972=ORIENTED_EDGE('',*,*,#703,.F.);
#973=ORIENTED_EDGE('',*,*,#707,.T.);
#974=ORIENTED_EDGE('',*,*,#705,.F.);
#975=ORIENTED_EDGE('',*,*,#708,.F.);
#976=ORIENTED_EDGE('',*,*,#709,.T.);
#977=ORIENTED_EDGE('',*,*,#710,.F.);
#978=ORIENTED_EDGE('',*,*,#711,.F.);
#979=ORIENTED_EDGE('',*,*,#712,.F.);
#980=ORIENTED_EDGE('',*,*,#713,.F.);
#981=ORIENTED_EDGE('',*,*,#714,.F.);
#982=ORIENTED_EDGE('',*,*,#709,.F.);
#983=ORIENTED_EDGE('',*,*,#715,.F.);
#984=ORIENTED_EDGE('',*,*,#716,.F.);
#985=ORIENTED_EDGE('',*,*,#717,.F.);
#986=ORIENTED_EDGE('',*,*,#713,.T.);
#987=ORIENTED_EDGE('',*,*,#718,.F.);
#988=ORIENTED_EDGE('',*,*,#719,.F.);
#989=ORIENTED_EDGE('',*,*,#720,.T.);
#990=ORIENTED_EDGE('',*,*,#721,.F.);
#991=ORIENTED_EDGE('',*,*,#715,.T.);
#992=ORIENTED_EDGE('',*,*,#712,.T.);
#993=ORIENTED_EDGE('',*,*,#708,.T.);
#994=ORIENTED_EDGE('',*,*,#722,.F.);
#995=ORIENTED_EDGE('',*,*,#720,.F.);
#996=ORIENTED_EDGE('',*,*,#723,.T.);
#997=ORIENTED_EDGE('',*,*,#724,.F.);
#998=ORIENTED_EDGE('',*,*,#723,.F.);
#999=ORIENTED_EDGE('',*,*,#725,.F.);
#1000=ORIENTED_EDGE('',*,*,#726,.F.);
#1001=ORIENTED_EDGE('',*,*,#727,.F.);
#1002=ORIENTED_EDGE('',*,*,#719,.T.);
#1003=ORIENTED_EDGE('',*,*,#728,.F.);
#1004=ORIENTED_EDGE('',*,*,#729,.F.);
#1005=ORIENTED_EDGE('',*,*,#730,.F.);
#1006=ORIENTED_EDGE('',*,*,#725,.T.);
#1007=ORIENTED_EDGE('',*,*,#731,.T.);
#1008=ORIENTED_EDGE('',*,*,#732,.F.);
#1009=ORIENTED_EDGE('',*,*,#731,.F.);
#1010=ORIENTED_EDGE('',*,*,#727,.T.);
#1011=ORIENTED_EDGE('',*,*,#728,.T.);
#1012=ORIENTED_EDGE('',*,*,#726,.T.);
#1013=ORIENTED_EDGE('',*,*,#718,.T.);
#1014=ORIENTED_EDGE('',*,*,#724,.T.);
#1015=ORIENTED_EDGE('',*,*,#730,.T.);
#1016=ORIENTED_EDGE('',*,*,#733,.T.);
#1017=ORIENTED_EDGE('',*,*,#734,.T.);
#1018=ORIENTED_EDGE('',*,*,#735,.T.);
#1019=ORIENTED_EDGE('',*,*,#736,.T.);
#1020=ORIENTED_EDGE('',*,*,#737,.T.);
#1021=ORIENTED_EDGE('',*,*,#738,.T.);
#1022=ORIENTED_EDGE('',*,*,#739,.T.);
#1023=ORIENTED_EDGE('',*,*,#729,.T.);
#1024=ORIENTED_EDGE('',*,*,#738,.F.);
#1025=ORIENTED_EDGE('',*,*,#740,.F.);
#1026=ORIENTED_EDGE('',*,*,#741,.F.);
#1027=ORIENTED_EDGE('',*,*,#742,.F.);
#1028=ORIENTED_EDGE('',*,*,#733,.F.);
#1029=ORIENTED_EDGE('',*,*,#743,.F.);
#1030=ORIENTED_EDGE('',*,*,#744,.T.);
#1031=ORIENTED_EDGE('',*,*,#739,.F.);
#1032=ORIENTED_EDGE('',*,*,#744,.F.);
#1033=ORIENTED_EDGE('',*,*,#740,.T.);
#1034=ORIENTED_EDGE('',*,*,#737,.F.);
#1035=ORIENTED_EDGE('',*,*,#745,.F.);
#1036=ORIENTED_EDGE('',*,*,#746,.F.);
#1037=ORIENTED_EDGE('',*,*,#742,.T.);
#1038=ORIENTED_EDGE('',*,*,#747,.F.);
#1039=ORIENTED_EDGE('',*,*,#748,.F.);
#1040=ORIENTED_EDGE('',*,*,#734,.F.);
#1041=ORIENTED_EDGE('',*,*,#741,.T.);
#1042=ORIENTED_EDGE('',*,*,#746,.T.);
#1043=ORIENTED_EDGE('',*,*,#749,.F.);
#1044=ORIENTED_EDGE('',*,*,#747,.T.);
#1045=ORIENTED_EDGE('',*,*,#743,.T.);
#1046=ORIENTED_EDGE('',*,*,#732,.T.);
#1047=ORIENTED_EDGE('',*,*,#717,.T.);
#1048=ORIENTED_EDGE('',*,*,#750,.F.);
#1049=ORIENTED_EDGE('',*,*,#751,.T.);
#1050=ORIENTED_EDGE('',*,*,#735,.F.);
#1051=ORIENTED_EDGE('',*,*,#748,.T.);
#1052=ORIENTED_EDGE('',*,*,#749,.T.);
#1053=ORIENTED_EDGE('',*,*,#745,.T.);
#1054=ORIENTED_EDGE('',*,*,#736,.F.);
#1055=ORIENTED_EDGE('',*,*,#751,.F.);
#1056=ORIENTED_EDGE('',*,*,#752,.F.);
#1057=ORIENTED_EDGE('',*,*,#710,.T.);
#1058=ORIENTED_EDGE('',*,*,#714,.T.);
#1059=ORIENTED_EDGE('',*,*,#716,.T.);
#1060=ORIENTED_EDGE('',*,*,#721,.T.);
#1061=ORIENTED_EDGE('',*,*,#722,.T.);
#1062=ORIENTED_EDGE('',*,*,#711,.T.);
#1063=ORIENTED_EDGE('',*,*,#752,.T.);
#1064=ORIENTED_EDGE('',*,*,#750,.T.);
#1065=PLANE('',#1263);
#1066=PLANE('',#1264);
#1067=PLANE('',#1265);
#1068=PLANE('',#1266);
#1069=PLANE('',#1267);
#1070=PLANE('',#1268);
#1071=PLANE('',#1269);
#1072=PLANE('',#1270);
#1073=PLANE('',#1271);
#1074=PLANE('',#1272);
#1075=PLANE('',#1273);
#1076=PLANE('',#1275);
#1077=PLANE('',#1276);
#1078=PLANE('',#1277);
#1079=PLANE('',#1278);
#1080=PLANE('',#1279);
#1081=PLANE('',#1280);
#1082=PLANE('',#1282);
#1083=PLANE('',#1283);
#1084=PLANE('',#1284);
#1085=PLANE('',#1285);
#1086=PLANE('',#1286);
#1087=PLANE('',#1287);
#1088=PLANE('',#1288);
#1089=PLANE('',#1289);
#1090=PLANE('',#1290);
#1091=PLANE('',#1291);
#1092=PLANE('',#1292);
#1093=PLANE('',#1294);
#1094=PLANE('',#1295);
#1095=PLANE('',#1296);
#1096=PLANE('',#1297);
#1097=PLANE('',#1298);
#1098=PLANE('',#1299);
#1099=PLANE('',#1304);
#1100=PLANE('',#1305);
#1101=PLANE('',#1306);
#1102=PLANE('',#1313);
#1103=PLANE('',#1314);
#1104=PLANE('',#1315);
#1105=PLANE('',#1316);
#1106=PLANE('',#1317);
#1107=PLANE('',#1318);
#1108=PLANE('',#1320);
#1109=PLANE('',#1322);
#1110=PLANE('',#1325);
#1111=PLANE('',#1326);
#1112=PLANE('',#1329);
#1113=PLANE('',#1334);
#1114=PLANE('',#1336);
#1115=PLANE('',#1341);
#1116=PLANE('',#1344);
#1117=PLANE('',#1348);
#1118=PLANE('',#1349);
#1119=PLANE('',#1350);
#1120=PLANE('',#1352);
#1121=PLANE('',#1356);
#1122=ADVANCED_FACE('',(#97),#1065,.T.);
#1123=ADVANCED_FACE('',(#98),#1066,.T.);
#1124=ADVANCED_FACE('',(#99),#1067,.F.);
#1125=ADVANCED_FACE('',(#100),#1068,.F.);
#1126=ADVANCED_FACE('',(#101),#1069,.F.);
#1127=ADVANCED_FACE('',(#102),#1070,.F.);
#1128=ADVANCED_FACE('',(#103),#1071,.T.);
#1129=ADVANCED_FACE('',(#104),#1072,.F.);
#1130=ADVANCED_FACE('',(#105),#1073,.F.);
#1131=ADVANCED_FACE('',(#106),#1074,.F.);
#1132=ADVANCED_FACE('',(#107),#1075,.F.);
#1133=ADVANCED_FACE('',(#108),#1076,.T.);
#1134=ADVANCED_FACE('',(#109),#1077,.F.);
#1135=ADVANCED_FACE('',(#110),#1078,.F.);
#1136=ADVANCED_FACE('',(#111),#1079,.F.);
#1137=ADVANCED_FACE('',(#112),#1080,.F.);
#1138=ADVANCED_FACE('',(#113),#1081,.F.);
#1139=ADVANCED_FACE('',(#114),#1082,.T.);
#1140=ADVANCED_FACE('',(#115),#1083,.F.);
#1141=ADVANCED_FACE('',(#116),#1084,.F.);
#1142=ADVANCED_FACE('',(#117),#1085,.F.);
#1143=ADVANCED_FACE('',(#118),#1086,.T.);
#1144=ADVANCED_FACE('',(#119),#1087,.T.);
#1145=ADVANCED_FACE('',(#120),#1088,.F.);
#1146=ADVANCED_FACE('',(#121),#1089,.F.);
#1147=ADVANCED_FACE('',(#122),#1090,.F.);
#1148=ADVANCED_FACE('',(#123),#1091,.F.);
#1149=ADVANCED_FACE('',(#124),#1092,.F.);
#1150=ADVANCED_FACE('',(#125),#1093,.T.);
#1151=ADVANCED_FACE('',(#126),#1094,.F.);
#1152=ADVANCED_FACE('',(#127),#1095,.F.);
#1153=ADVANCED_FACE('',(#128),#1096,.F.);
#1154=ADVANCED_FACE('',(#129),#1097,.F.);
#1155=ADVANCED_FACE('',(#130),#1098,.F.);
#1156=ADVANCED_FACE('',(#131),#63,.F.);
#1157=ADVANCED_FACE('',(#132),#1099,.F.);
#1158=ADVANCED_FACE('',(#133),#1100,.F.);
#1159=ADVANCED_FACE('',(#134,#35),#1101,.F.);
#1160=ADVANCED_FACE('',(#135),#64,.F.);
#1161=ADVANCED_FACE('',(#136),#65,.T.);
#1162=ADVANCED_FACE('',(#137),#1102,.F.);
#1163=ADVANCED_FACE('',(#138),#1103,.F.);
#1164=ADVANCED_FACE('',(#139,#36),#1104,.F.);
#1165=ADVANCED_FACE('',(#140),#1105,.F.);
#1166=ADVANCED_FACE('',(#141),#1106,.F.);
#1167=ADVANCED_FACE('',(#142),#1107,.F.);
#1168=ADVANCED_FACE('',(#143),#1108,.F.);
#1169=ADVANCED_FACE('',(#144),#1109,.F.);
#1170=ADVANCED_FACE('',(#145),#66,.F.);
#1171=ADVANCED_FACE('',(#146),#1110,.T.);
#1172=ADVANCED_FACE('',(#147),#1111,.T.);
#1173=ADVANCED_FACE('',(#148),#1112,.T.);
#1174=ADVANCED_FACE('',(#149),#67,.F.);
#1175=ADVANCED_FACE('',(#150),#1113,.F.);
#1176=ADVANCED_FACE('',(#151),#1114,.F.);
#1177=ADVANCED_FACE('',(#152),#68,.F.);
#1178=ADVANCED_FACE('',(#153),#1115,.T.);
#1179=ADVANCED_FACE('',(#154,#37),#1116,.T.);
#1180=ADVANCED_FACE('',(#155),#69,.T.);
#1181=ADVANCED_FACE('',(#156),#1117,.F.);
#1182=ADVANCED_FACE('',(#157),#1118,.F.);
#1183=ADVANCED_FACE('',(#158),#1119,.T.);
#1184=ADVANCED_FACE('',(#159,#38),#1120,.F.);
#1185=ADVANCED_FACE('',(#160),#70,.T.);
#1186=ADVANCED_FACE('',(#161),#1121,.T.);
#1187=CLOSED_SHELL('',(#1122,#1123,#1124,#1125,#1126,#1127,#1128,#1129,
#1130,#1131,#1132));
#1188=CLOSED_SHELL('',(#1133,#1134,#1135,#1136,#1137,#1138));
#1189=CLOSED_SHELL('',(#1139,#1140,#1141,#1142,#1143,#1144,#1145,#1146,
#1147,#1148,#1149));
#1190=CLOSED_SHELL('',(#1150,#1151,#1152,#1153,#1154,#1155));
#1191=CLOSED_SHELL('',(#1156,#1157,#1158,#1159,#1160,#1161,#1162,#1163,
#1164));
#1192=CLOSED_SHELL('',(#1165,#1166,#1167,#1168,#1169,#1170));
#1193=CLOSED_SHELL('',(#1171,#1172,#1173,#1174,#1175,#1176,#1177,#1178,
#1179,#1180,#1181,#1182,#1183,#1184,#1185,#1186));
#1194=DERIVED_UNIT_ELEMENT(#1206,1.);
#1195=DERIVED_UNIT_ELEMENT(#2052,-3.);
#1196=DERIVED_UNIT_ELEMENT(#1206,1.);
#1197=DERIVED_UNIT_ELEMENT(#2052,-3.);
#1198=DERIVED_UNIT_ELEMENT(#1206,1.);
#1199=DERIVED_UNIT_ELEMENT(#2052,-3.);
#1200=DERIVED_UNIT_ELEMENT(#1206,1.);
#1201=DERIVED_UNIT_ELEMENT(#2052,-3.);
#1202=DERIVED_UNIT_ELEMENT(#1206,1.);
#1203=DERIVED_UNIT_ELEMENT(#2052,-3.);
#1204=DERIVED_UNIT_ELEMENT(#1206,1.);
#1205=DERIVED_UNIT_ELEMENT(#2052,-3.);
#1206=(
MASS_UNIT()
NAMED_UNIT(*)
SI_UNIT(.KILO.,.GRAM.)
);
#1207=DERIVED_UNIT((#1194,#1195));
#1208=DERIVED_UNIT((#1196,#1197));
#1209=DERIVED_UNIT((#1198,#1199));
#1210=DERIVED_UNIT((#1200,#1201));
#1211=DERIVED_UNIT((#1202,#1203));
#1212=DERIVED_UNIT((#1204,#1205));
#1213=MEASURE_REPRESENTATION_ITEM('density measure',
POSITIVE_RATIO_MEASURE(7850.),#1207);
#1214=MEASURE_REPRESENTATION_ITEM('density measure',
POSITIVE_RATIO_MEASURE(7850.),#1208);
#1215=MEASURE_REPRESENTATION_ITEM('density measure',
POSITIVE_RATIO_MEASURE(7850.),#1209);
#1216=MEASURE_REPRESENTATION_ITEM('density measure',
POSITIVE_RATIO_MEASURE(7850.),#1210);
#1217=MEASURE_REPRESENTATION_ITEM('density measure',
POSITIVE_RATIO_MEASURE(7850.),#1211);
#1218=MEASURE_REPRESENTATION_ITEM('density measure',
POSITIVE_RATIO_MEASURE(7850.),#1212);
#1219=PROPERTY_DEFINITION_REPRESENTATION(#1249,#1231);
#1220=PROPERTY_DEFINITION_REPRESENTATION(#1250,#1232);
#1221=PROPERTY_DEFINITION_REPRESENTATION(#1251,#1233);
#1222=PROPERTY_DEFINITION_REPRESENTATION(#1252,#1234);
#1223=PROPERTY_DEFINITION_REPRESENTATION(#1253,#1235);
#1224=PROPERTY_DEFINITION_REPRESENTATION(#1254,#1236);
#1225=PROPERTY_DEFINITION_REPRESENTATION(#1255,#1237);
#1226=PROPERTY_DEFINITION_REPRESENTATION(#1256,#1238);
#1227=PROPERTY_DEFINITION_REPRESENTATION(#1257,#1239);
#1228=PROPERTY_DEFINITION_REPRESENTATION(#1258,#1240);
#1229=PROPERTY_DEFINITION_REPRESENTATION(#1259,#1241);
#1230=PROPERTY_DEFINITION_REPRESENTATION(#1260,#1242);
#1231=REPRESENTATION('material name',(#1243),#2044);
#1232=REPRESENTATION('density',(#1213),#2044);
#1233=REPRESENTATION('material name',(#1244),#2045);
#1234=REPRESENTATION('density',(#1214),#2045);
#1235=REPRESENTATION('material name',(#1245),#2046);
#1236=REPRESENTATION('density',(#1215),#2046);
#1237=REPRESENTATION('material name',(#1246),#2047);
#1238=REPRESENTATION('density',(#1216),#2047);
#1239=REPRESENTATION('material name',(#1247),#2048);
#1240=REPRESENTATION('density',(#1217),#2048);
#1241=REPRESENTATION('material name',(#1248),#2049);
#1242=REPRESENTATION('density',(#1218),#2049);
#1243=DESCRIPTIVE_REPRESENTATION_ITEM('Steel','Steel');
#1244=DESCRIPTIVE_REPRESENTATION_ITEM('Steel','Steel');
#1245=DESCRIPTIVE_REPRESENTATION_ITEM('Steel','Steel');
#1246=DESCRIPTIVE_REPRESENTATION_ITEM('Steel','Steel');
#1247=DESCRIPTIVE_REPRESENTATION_ITEM('Steel','Steel');
#1248=DESCRIPTIVE_REPRESENTATION_ITEM('Steel','Steel');
#1249=PROPERTY_DEFINITION('material property','material name',#2084);
#1250=PROPERTY_DEFINITION('material property','density of part',#2084);
#1251=PROPERTY_DEFINITION('material property','material name',#2085);
#1252=PROPERTY_DEFINITION('material property','density of part',#2085);
#1253=PROPERTY_DEFINITION('material property','material name',#2086);
#1254=PROPERTY_DEFINITION('material property','density of part',#2086);
#1255=PROPERTY_DEFINITION('material property','material name',#2087);
#1256=PROPERTY_DEFINITION('material property','density of part',#2087);
#1257=PROPERTY_DEFINITION('material property','material name',#2088);
#1258=PROPERTY_DEFINITION('material property','density of part',#2088);
#1259=PROPERTY_DEFINITION('material property','material name',#2089);
#1260=PROPERTY_DEFINITION('material property','density of part',#2089);
#1261=AXIS2_PLACEMENT_3D('',#1699,#1363,#1364);
#1262=AXIS2_PLACEMENT_3D('',#1700,#1365,#1366);
#1263=AXIS2_PLACEMENT_3D('',#1701,#1367,#1368);
#1264=AXIS2_PLACEMENT_3D('',#1710,#1373,#1374);
#1265=AXIS2_PLACEMENT_3D('',#1720,#1380,#1381);
#1266=AXIS2_PLACEMENT_3D('',#1730,#1387,#1388);
#1267=AXIS2_PLACEMENT_3D('',#1734,#1391,#1392);
#1268=AXIS2_PLACEMENT_3D('',#1738,#1395,#1396);
#1269=AXIS2_PLACEMENT_3D('',#1740,#1398,#1399);
#1270=AXIS2_PLACEMENT_3D('',#1746,#1403,#1404);
#1271=AXIS2_PLACEMENT_3D('',#1750,#1407,#1408);
#1272=AXIS2_PLACEMENT_3D('',#1754,#1411,#1412);
#1273=AXIS2_PLACEMENT_3D('',#1756,#1414,#1415);
#1274=AXIS2_PLACEMENT_3D('',#1757,#1416,#1417);
#1275=AXIS2_PLACEMENT_3D('',#1758,#1418,#1419);
#1276=AXIS2_PLACEMENT_3D('',#1767,#1424,#1425);
#1277=AXIS2_PLACEMENT_3D('',#1776,#1430,#1431);
#1278=AXIS2_PLACEMENT_3D('',#1779,#1434,#1435);
#1279=AXIS2_PLACEMENT_3D('',#1781,#1437,#1438);
#1280=AXIS2_PLACEMENT_3D('',#1783,#1440,#1441);
#1281=AXIS2_PLACEMENT_3D('',#1784,#1442,#1443);
#1282=AXIS2_PLACEMENT_3D('',#1785,#1444,#1445);
#1283=AXIS2_PLACEMENT_3D('',#1794,#1450,#1451);
#1284=AXIS2_PLACEMENT_3D('',#1800,#1455,#1456);
#1285=AXIS2_PLACEMENT_3D('',#1813,#1463,#1464);
#1286=AXIS2_PLACEMENT_3D('',#1819,#1468,#1469);
#1287=AXIS2_PLACEMENT_3D('',#1822,#1472,#1473);
#1288=AXIS2_PLACEMENT_3D('',#1829,#1478,#1479);
#1289=AXIS2_PLACEMENT_3D('',#1833,#1482,#1483);
#1290=AXIS2_PLACEMENT_3D('',#1834,#1484,#1485);
#1291=AXIS2_PLACEMENT_3D('',#1838,#1488,#1489);
#1292=AXIS2_PLACEMENT_3D('',#1840,#1491,#1492);
#1293=AXIS2_PLACEMENT_3D('',#1841,#1493,#1494);
#1294=AXIS2_PLACEMENT_3D('',#1842,#1495,#1496);
#1295=AXIS2_PLACEMENT_3D('',#1851,#1501,#1502);
#1296=AXIS2_PLACEMENT_3D('',#1860,#1507,#1508);
#1297=AXIS2_PLACEMENT_3D('',#1863,#1511,#1512);
#1298=AXIS2_PLACEMENT_3D('',#1865,#1514,#1515);
#1299=AXIS2_PLACEMENT_3D('',#1867,#1517,#1518);
#1300=AXIS2_PLACEMENT_3D('',#1868,#1519,#1520);
#1301=AXIS2_PLACEMENT_3D('',#1869,#1521,#1522);
#1302=AXIS2_PLACEMENT_3D('',#1874,#1524,#1525);
#1303=AXIS2_PLACEMENT_3D('',#1877,#1527,#1528);
#1304=AXIS2_PLACEMENT_3D('',#1878,#1529,#1530);
#1305=AXIS2_PLACEMENT_3D('',#1884,#1534,#1535);
#1306=AXIS2_PLACEMENT_3D('',#1890,#1539,#1540);
#1307=AXIS2_PLACEMENT_3D('',#1892,#1541,#1542);
#1308=AXIS2_PLACEMENT_3D('',#1897,#1545,#1546);
#1309=AXIS2_PLACEMENT_3D('',#1898,#1547,#1548);
#1310=AXIS2_PLACEMENT_3D('',#1901,#1550,#1551);
#1311=AXIS2_PLACEMENT_3D('',#1902,#1552,#1553);
#1312=AXIS2_PLACEMENT_3D('',#1904,#1554,#1555);
#1313=AXIS2_PLACEMENT_3D('',#1906,#1557,#1558);
#1314=AXIS2_PLACEMENT_3D('',#1910,#1561,#1562);
#1315=AXIS2_PLACEMENT_3D('',#1912,#1564,#1565);
#1316=AXIS2_PLACEMENT_3D('',#1913,#1566,#1567);
#1317=AXIS2_PLACEMENT_3D('',#1922,#1572,#1573);
#1318=AXIS2_PLACEMENT_3D('',#1928,#1577,#1578);
#1319=AXIS2_PLACEMENT_3D('',#1930,#1579,#1580);
#1320=AXIS2_PLACEMENT_3D('',#1932,#1582,#1583);
#1321=AXIS2_PLACEMENT_3D('',#1934,#1584,#1585);
#1322=AXIS2_PLACEMENT_3D('',#1936,#1587,#1588);
#1323=AXIS2_PLACEMENT_3D('',#1938,#1590,#1591);
#1324=AXIS2_PLACEMENT_3D('',#1939,#1592,#1593);
#1325=AXIS2_PLACEMENT_3D('',#1940,#1594,#1595);
#1326=AXIS2_PLACEMENT_3D('',#1949,#1600,#1601);
#1327=AXIS2_PLACEMENT_3D('',#1951,#1602,#1603);
#1328=AXIS2_PLACEMENT_3D('',#1954,#1605,#1606);
#1329=AXIS2_PLACEMENT_3D('',#1955,#1607,#1608);
#1330=AXIS2_PLACEMENT_3D('',#1961,#1612,#1613);
#1331=AXIS2_PLACEMENT_3D('',#1963,#1614,#1615);
#1332=AXIS2_PLACEMENT_3D('',#1968,#1618,#1619);
#1333=AXIS2_PLACEMENT_3D('',#1969,#1620,#1621);
#1334=AXIS2_PLACEMENT_3D('',#1971,#1623,#1624);
#1335=AXIS2_PLACEMENT_3D('',#1974,#1626,#1627);
#1336=AXIS2_PLACEMENT_3D('',#1975,#1628,#1629);
#1337=AXIS2_PLACEMENT_3D('',#1978,#1631,#1632);
#1338=AXIS2_PLACEMENT_3D('',#1979,#1633,#1634);
#1339=AXIS2_PLACEMENT_3D('',#1983,#1636,#1637);
#1340=AXIS2_PLACEMENT_3D('',#1987,#1640,#1641);
#1341=AXIS2_PLACEMENT_3D('',#1988,#1642,#1643);
#1342=AXIS2_PLACEMENT_3D('',#1994,#1646,#1647);
#1343=AXIS2_PLACEMENT_3D('',#1996,#1648,#1649);
#1344=AXIS2_PLACEMENT_3D('',#2000,#1652,#1653);
#1345=AXIS2_PLACEMENT_3D('',#2002,#1654,#1655);
#1346=AXIS2_PLACEMENT_3D('',#2008,#1659,#1660);
#1347=AXIS2_PLACEMENT_3D('',#2010,#1661,#1662);
#1348=AXIS2_PLACEMENT_3D('',#2012,#1664,#1665);
#1349=AXIS2_PLACEMENT_3D('',#2016,#1668,#1669);
#1350=AXIS2_PLACEMENT_3D('',#2020,#1672,#1673);
#1351=AXIS2_PLACEMENT_3D('',#2021,#1674,#1675);
#1352=AXIS2_PLACEMENT_3D('',#2022,#1676,#1677);
#1353=AXIS2_PLACEMENT_3D('',#2023,#1678,#1679);
#1354=AXIS2_PLACEMENT_3D('',#2025,#1680,#1681);
#1355=AXIS2_PLACEMENT_3D('',#2027,#1683,#1684);
#1356=AXIS2_PLACEMENT_3D('',#2028,#1685,#1686);
#1357=AXIS2_PLACEMENT_3D('',#2029,#1687,#1688);
#1358=AXIS2_PLACEMENT_3D('',#2030,#1689,#1690);
#1359=AXIS2_PLACEMENT_3D('',#2031,#1691,#1692);
#1360=AXIS2_PLACEMENT_3D('',#2032,#1693,#1694);
#1361=AXIS2_PLACEMENT_3D('',#2033,#1695,#1696);
#1362=AXIS2_PLACEMENT_3D('',#2034,#1697,#1698);
#1363=DIRECTION('axis',(0.,0.,1.));
#1364=DIRECTION('refdir',(1.,0.,0.));
#1365=DIRECTION('axis',(0.,0.,1.));
#1366=DIRECTION('refdir',(1.,0.,0.));
#1367=DIRECTION('center_axis',(1.,0.,0.));
#1368=DIRECTION('ref_axis',(0.,0.,-1.));
#1369=DIRECTION('',(0.,0.,-1.));
#1370=DIRECTION('',(0.,1.,0.));
#1371=DIRECTION('',(0.,0.,1.));
#1372=DIRECTION('',(0.,1.,0.));
#1373=DIRECTION('center_axis',(0.,0.,1.));
#1374=DIRECTION('ref_axis',(1.,0.,0.));
#1375=DIRECTION('',(0.,1.,0.));
#1376=DIRECTION('',(1.,0.,0.));
#1377=DIRECTION('',(-1.,0.,0.));
#1378=DIRECTION('',(0.,-1.,0.));
#1379=DIRECTION('',(1.,0.,0.));
#1380=DIRECTION('center_axis',(-1.,0.,0.));
#1381=DIRECTION('ref_axis',(0.,0.,1.));
#1382=DIRECTION('',(0.,0.,-1.));
#1383=DIRECTION('',(0.,1.,0.));
#1384=DIRECTION('',(0.,0.,-1.));
#1385=DIRECTION('',(0.,-1.,0.));
#1386=DIRECTION('',(0.,0.,-1.));
#1387=DIRECTION('center_axis',(0.,1.,0.));
#1388=DIRECTION('ref_axis',(0.,0.,1.));
#1389=DIRECTION('',(1.,0.,0.));
#1390=DIRECTION('',(0.,0.,-1.));
#1391=DIRECTION('center_axis',(-1.,0.,0.));
#1392=DIRECTION('ref_axis',(0.,0.,1.));
#1393=DIRECTION('',(0.,1.,0.));
#1394=DIRECTION('',(0.,0.,1.));
#1395=DIRECTION('center_axis',(0.,-1.,0.));
#1396=DIRECTION('ref_axis',(0.,0.,-1.));
#1397=DIRECTION('',(-1.,0.,0.));
#1398=DIRECTION('center_axis',(0.,0.,1.));
#1399=DIRECTION('ref_axis',(1.,0.,0.));
#1400=DIRECTION('',(-1.,0.,0.));
#1401=DIRECTION('',(0.,-1.,0.));
#1402=DIRECTION('',(1.,0.,0.));
#1403=DIRECTION('center_axis',(0.,1.,0.));
#1404=DIRECTION('ref_axis',(0.,0.,1.));
#1405=DIRECTION('',(0.,0.,-1.));
#1406=DIRECTION('',(-1.,0.,0.));
#1407=DIRECTION('center_axis',(1.,0.,0.));
#1408=DIRECTION('ref_axis',(0.,0.,-1.));
#1409=DIRECTION('',(0.,0.,-1.));
#1410=DIRECTION('',(0.,1.,0.));
#1411=DIRECTION('center_axis',(0.,0.,1.));
#1412=DIRECTION('ref_axis',(1.,0.,0.));
#1413=DIRECTION('',(1.,0.,0.));
#1414=DIRECTION('center_axis',(0.,-1.,0.));
#1415=DIRECTION('ref_axis',(0.,0.,-1.));
#1416=DIRECTION('axis',(0.,0.,1.));
#1417=DIRECTION('refdir',(1.,0.,0.));
#1418=DIRECTION('center_axis',(0.,0.,-1.));
#1419=DIRECTION('ref_axis',(1.,0.,0.));
#1420=DIRECTION('',(0.,-1.,0.));
#1421=DIRECTION('',(-1.,0.,0.));
#1422=DIRECTION('',(0.,1.,0.));
#1423=DIRECTION('',(1.,0.,0.));
#1424=DIRECTION('center_axis',(0.,0.,-1.));
#1425=DIRECTION('ref_axis',(1.,0.,0.));
#1426=DIRECTION('',(0.,1.,0.));
#1427=DIRECTION('',(-1.,0.,0.));
#1428=DIRECTION('',(0.,-1.,0.));
#1429=DIRECTION('',(1.,0.,0.));
#1430=DIRECTION('center_axis',(0.,-1.,0.));
#1431=DIRECTION('ref_axis',(0.,0.,-1.));
#1432=DIRECTION('',(0.,0.,1.));
#1433=DIRECTION('',(0.,0.,1.));
#1434=DIRECTION('center_axis',(1.,0.,0.));
#1435=DIRECTION('ref_axis',(0.,0.,1.));
#1436=DIRECTION('',(0.,0.,1.));
#1437=DIRECTION('center_axis',(0.,1.,0.));
#1438=DIRECTION('ref_axis',(0.,0.,1.));
#1439=DIRECTION('',(0.,0.,1.));
#1440=DIRECTION('center_axis',(-1.,0.,0.));
#1441=DIRECTION('ref_axis',(0.,0.,-1.));
#1442=DIRECTION('axis',(0.,0.,1.));
#1443=DIRECTION('refdir',(1.,0.,0.));
#1444=DIRECTION('center_axis',(-1.,0.,0.));
#1445=DIRECTION('ref_axis',(0.,0.,1.));
#1446=DIRECTION('',(0.,0.,-1.));
#1447=DIRECTION('',(0.,-1.,0.));
#1448=DIRECTION('',(0.,0.,1.));
#1449=DIRECTION('',(0.,-1.,0.));
#1450=DIRECTION('center_axis',(0.,1.,0.));
#1451=DIRECTION('ref_axis',(0.,0.,1.));
#1452=DIRECTION('',(-1.,0.,0.));
#1453=DIRECTION('',(0.,0.,1.));
#1454=DIRECTION('',(1.,0.,0.));
#1455=DIRECTION('center_axis',(1.,0.,0.));
#1456=DIRECTION('ref_axis',(0.,0.,-1.));
#1457=DIRECTION('',(0.,-1.,0.));
#1458=DIRECTION('',(0.,0.,-1.));
#1459=DIRECTION('',(0.,1.,0.));
#1460=DIRECTION('',(0.,0.,-1.));
#1461=DIRECTION('',(0.,-1.,0.));
#1462=DIRECTION('',(0.,0.,-1.));
#1463=DIRECTION('center_axis',(1.,0.,0.));
#1464=DIRECTION('ref_axis',(0.,0.,-1.));
#1465=DIRECTION('',(0.,0.,-1.));
#1466=DIRECTION('',(0.,-1.,0.));
#1467=DIRECTION('',(0.,1.,0.));
#1468=DIRECTION('center_axis',(0.,0.,1.));
#1469=DIRECTION('ref_axis',(1.,0.,0.));
#1470=DIRECTION('',(1.,0.,0.));
#1471=DIRECTION('',(1.,0.,0.));
#1472=DIRECTION('center_axis',(0.,0.,1.));
#1473=DIRECTION('ref_axis',(1.,0.,0.));
#1474=DIRECTION('',(-1.,0.,0.));
#1475=DIRECTION('',(1.,0.,0.));
#1476=DIRECTION('',(0.,1.,0.));
#1477=DIRECTION('',(-1.,0.,0.));
#1478=DIRECTION('center_axis',(0.,-1.,0.));
#1479=DIRECTION('ref_axis',(0.,0.,-1.));
#1480=DIRECTION('',(0.,0.,-1.));
#1481=DIRECTION('',(1.,0.,0.));
#1482=DIRECTION('center_axis',(0.,-1.,0.));
#1483=DIRECTION('ref_axis',(0.,0.,-1.));
#1484=DIRECTION('center_axis',(-1.,0.,0.));
#1485=DIRECTION('ref_axis',(0.,0.,1.));
#1486=DIRECTION('',(0.,0.,-1.));
#1487=DIRECTION('',(0.,-1.,0.));
#1488=DIRECTION('center_axis',(0.,0.,1.));
#1489=DIRECTION('ref_axis',(1.,0.,0.));
#1490=DIRECTION('',(-1.,0.,0.));
#1491=DIRECTION('center_axis',(0.,1.,0.));
#1492=DIRECTION('ref_axis',(0.,0.,1.));
#1493=DIRECTION('axis',(0.,0.,1.));
#1494=DIRECTION('refdir',(1.,0.,0.));
#1495=DIRECTION('center_axis',(0.,0.,-1.));
#1496=DIRECTION('ref_axis',(1.,0.,0.));
#1497=DIRECTION('',(0.,-1.,0.));
#1498=DIRECTION('',(-1.,0.,0.));
#1499=DIRECTION('',(0.,1.,0.));
#1500=DIRECTION('',(1.,0.,0.));
#1501=DIRECTION('center_axis',(0.,0.,-1.));
#1502=DIRECTION('ref_axis',(1.,0.,0.));
#1503=DIRECTION('',(0.,1.,0.));
#1504=DIRECTION('',(-1.,0.,0.));
#1505=DIRECTION('',(0.,-1.,0.));
#1506=DIRECTION('',(1.,0.,0.));
#1507=DIRECTION('center_axis',(0.,-1.,0.));
#1508=DIRECTION('ref_axis',(0.,0.,-1.));
#1509=DIRECTION('',(0.,0.,1.));
#1510=DIRECTION('',(0.,0.,1.));
#1511=DIRECTION('center_axis',(1.,0.,0.));
#1512=DIRECTION('ref_axis',(0.,0.,1.));
#1513=DIRECTION('',(0.,0.,1.));
#1514=DIRECTION('center_axis',(0.,1.,0.));
#1515=DIRECTION('ref_axis',(0.,0.,1.));
#1516=DIRECTION('',(0.,0.,1.));
#1517=DIRECTION('center_axis',(-1.,0.,0.));
#1518=DIRECTION('ref_axis',(0.,0.,-1.));
#1519=DIRECTION('axis',(0.,0.,1.));
#1520=DIRECTION('refdir',(1.,0.,0.));
#1521=DIRECTION('center_axis',(0.,1.,0.));
#1522=DIRECTION('ref_axis',(0.,0.,-1.));
#1523=DIRECTION('',(0.,1.,0.));
#1524=DIRECTION('center_axis',(0.,-1.,0.));
#1525=DIRECTION('ref_axis',(0.,0.,-1.));
#1526=DIRECTION('',(0.,1.,0.));
#1527=DIRECTION('center_axis',(0.,1.,0.));
#1528=DIRECTION('ref_axis',(0.,0.,-1.));
#1529=DIRECTION('center_axis',(0.,-1.,0.));
#1530=DIRECTION('ref_axis',(-1.,0.,0.));
#1531=DIRECTION('',(-1.,0.,0.));
#1532=DIRECTION('',(0.,0.,-1.));
#1533=DIRECTION('',(-1.,0.,0.));
#1534=DIRECTION('center_axis',(0.,1.,0.));
#1535=DIRECTION('ref_axis',(1.,0.,0.));
#1536=DIRECTION('',(-1.,0.,0.));
#1537=DIRECTION('',(0.,0.,1.));
#1538=DIRECTION('',(-1.,0.,0.));
#1539=DIRECTION('center_axis',(0.,0.,-1.));
#1540=DIRECTION('ref_axis',(-1.,0.,0.));
#1541=DIRECTION('center_axis',(0.,0.,1.));
#1542=DIRECTION('ref_axis',(-1.,0.,0.));
#1543=DIRECTION('',(-1.,0.,0.));
#1544=DIRECTION('',(0.,1.,0.));
#1545=DIRECTION('center_axis',(0.,0.,-1.));
#1546=DIRECTION('ref_axis',(-1.,0.,0.));
#1547=DIRECTION('center_axis',(0.,0.,-1.));
#1548=DIRECTION('ref_axis',(-1.,0.,0.));
#1549=DIRECTION('',(0.,0.,-1.));
#1550=DIRECTION('center_axis',(0.,0.,1.));
#1551=DIRECTION('ref_axis',(-1.,0.,0.));
#1552=DIRECTION('center_axis',(0.,0.,-1.));
#1553=DIRECTION('ref_axis',(0.985685386199257,0.168595134666519,0.));
#1554=DIRECTION('center_axis',(0.,0.,-1.));
#1555=DIRECTION('ref_axis',(-1.,0.,0.));
#1556=DIRECTION('',(0.,0.,-1.));
#1557=DIRECTION('center_axis',(0.,-1.,0.));
#1558=DIRECTION('ref_axis',(-1.,0.,0.));
#1559=DIRECTION('',(-1.,0.,0.));
#1560=DIRECTION('',(0.,0.,-1.));
#1561=DIRECTION('center_axis',(1.,0.,0.));
#1562=DIRECTION('ref_axis',(0.,0.,-1.));
#1563=DIRECTION('',(0.,-1.,0.));
#1564=DIRECTION('center_axis',(0.,0.,1.));
#1565=DIRECTION('ref_axis',(1.,0.,0.));
#1566=DIRECTION('center_axis',(1.,0.,0.));
#1567=DIRECTION('ref_axis',(0.,0.,-1.));
#1568=DIRECTION('',(0.,-1.,0.));
#1569=DIRECTION('',(0.,0.,1.));
#1570=DIRECTION('',(0.,1.,0.));
#1571=DIRECTION('',(0.,0.,-1.));
#1572=DIRECTION('center_axis',(0.,0.,-1.));
#1573=DIRECTION('ref_axis',(-1.,0.,0.));
#1574=DIRECTION('',(0.,1.,0.));
#1575=DIRECTION('',(-1.,0.,0.));
#1576=DIRECTION('',(-1.,0.,0.));
#1577=DIRECTION('center_axis',(0.,1.,0.));
#1578=DIRECTION('ref_axis',(1.,0.,0.));
#1579=DIRECTION('center_axis',(0.,1.,0.));
#1580=DIRECTION('ref_axis',(0.,0.,-1.));
#1581=DIRECTION('',(-1.,0.,0.));
#1582=DIRECTION('center_axis',(0.,-1.,0.));
#1583=DIRECTION('ref_axis',(-1.,0.,0.));
#1584=DIRECTION('center_axis',(0.,-1.,0.));
#1585=DIRECTION('ref_axis',(0.,0.,-1.));
#1586=DIRECTION('',(-1.,0.,0.));
#1587=DIRECTION('center_axis',(0.,0.,1.));
#1588=DIRECTION('ref_axis',(1.,0.,0.));
#1589=DIRECTION('',(0.,1.,0.));
#1590=DIRECTION('center_axis',(0.,1.,0.));
#1591=DIRECTION('ref_axis',(0.,0.,-1.));
#1592=DIRECTION('axis',(0.,0.,1.));
#1593=DIRECTION('refdir',(1.,0.,0.));
#1594=DIRECTION('center_axis',(0.,0.,1.));
#1595=DIRECTION('ref_axis',(1.,0.,0.));
#1596=DIRECTION('',(-1.,0.,0.));
#1597=DIRECTION('',(0.,1.,0.));
#1598=DIRECTION('',(1.,0.,0.));
#1599=DIRECTION('',(0.,1.,0.));
#1600=DIRECTION('center_axis',(-1.,0.,0.));
#1601=DIRECTION('ref_axis',(0.,0.,1.));
#1602=DIRECTION('center_axis',(-1.,0.,0.));
#1603=DIRECTION('ref_axis',(0.,0.,1.));
#1604=DIRECTION('',(0.,-1.,0.));
#1605=DIRECTION('center_axis',(1.,0.,0.));
#1606=DIRECTION('ref_axis',(0.,0.,1.));
#1607=DIRECTION('center_axis',(0.,0.,-1.));
#1608=DIRECTION('ref_axis',(-1.,0.,0.));
#1609=DIRECTION('',(1.,0.,0.));
#1610=DIRECTION('',(0.,-1.,0.));
#1611=DIRECTION('',(-1.,0.,0.));
#1612=DIRECTION('center_axis',(-1.,0.,0.));
#1613=DIRECTION('ref_axis',(0.,1.22464679914735E-16,-1.));
#1614=DIRECTION('center_axis',(-1.,0.,0.));
#1615=DIRECTION('ref_axis',(0.,0.,1.));
#1616=DIRECTION('',(1.,0.,0.));
#1617=DIRECTION('',(-1.,0.,0.));
#1618=DIRECTION('center_axis',(1.,0.,0.));
#1619=DIRECTION('ref_axis',(0.,0.,1.));
#1620=DIRECTION('center_axis',(1.,0.,0.));
#1621=DIRECTION('ref_axis',(0.,0.,1.));
#1622=DIRECTION('',(1.,0.,0.));
#1623=DIRECTION('center_axis',(0.,0.,-1.));
#1624=DIRECTION('ref_axis',(-1.,0.,0.));
#1625=DIRECTION('',(0.,-1.,0.));
#1626=DIRECTION('center_axis',(0.,0.,-1.));
#1627=DIRECTION('ref_axis',(1.,0.,0.));
#1628=DIRECTION('center_axis',(0.,0.,-1.));
#1629=DIRECTION('ref_axis',(-1.,0.,0.));
#1630=DIRECTION('',(0.,-1.,0.));
#1631=DIRECTION('center_axis',(0.,0.,-1.));
#1632=DIRECTION('ref_axis',(1.,0.,0.));
#1633=DIRECTION('center_axis',(0.,0.,1.));
#1634=DIRECTION('ref_axis',(1.,0.,0.));
#1635=DIRECTION('',(0.,0.,-1.));
#1636=DIRECTION('center_axis',(0.,0.,1.));
#1637=DIRECTION('ref_axis',(1.,0.,0.));
#1638=DIRECTION('',(0.,0.,1.));
#1639=DIRECTION('',(0.,0.,1.));
#1640=DIRECTION('center_axis',(0.,0.,-1.));
#1641=DIRECTION('ref_axis',(1.,0.,0.));
#1642=DIRECTION('center_axis',(1.,0.,0.));
#1643=DIRECTION('ref_axis',(0.,0.,-1.));
#1644=DIRECTION('',(0.,-1.,0.));
#1645=DIRECTION('',(0.,0.,-1.));
#1646=DIRECTION('center_axis',(1.,0.,0.));
#1647=DIRECTION('ref_axis',(0.,0.,1.));
#1648=DIRECTION('center_axis',(1.,0.,0.));
#1649=DIRECTION('ref_axis',(0.,0.,1.));
#1650=DIRECTION('',(0.,0.,1.));
#1651=DIRECTION('',(0.,-1.,0.));
#1652=DIRECTION('center_axis',(0.,0.,-1.));
#1653=DIRECTION('ref_axis',(-1.,0.,0.));
#1654=DIRECTION('center_axis',(0.,0.,-1.));
#1655=DIRECTION('ref_axis',(1.,0.,0.));
#1656=DIRECTION('',(1.,0.,0.));
#1657=DIRECTION('',(0.,1.,0.));
#1658=DIRECTION('',(-1.,0.,0.));
#1659=DIRECTION('center_axis',(0.,0.,1.));
#1660=DIRECTION('ref_axis',(1.,0.,0.));
#1661=DIRECTION('center_axis',(0.,0.,1.));
#1662=DIRECTION('ref_axis',(1.,0.,0.));
#1663=DIRECTION('',(0.,0.,-1.));
#1664=DIRECTION('center_axis',(0.,-1.,0.));
#1665=DIRECTION('ref_axis',(1.,0.,0.));
#1666=DIRECTION('',(1.,0.,0.));
#1667=DIRECTION('',(0.,0.,-1.));
#1668=DIRECTION('center_axis',(0.,1.,0.));
#1669=DIRECTION('ref_axis',(-1.,0.,0.));
#1670=DIRECTION('',(0.,0.,1.));
#1671=DIRECTION('',(-1.,0.,0.));
#1672=DIRECTION('center_axis',(-1.,0.,0.));
#1673=DIRECTION('ref_axis',(0.,0.,1.));
#1674=DIRECTION('center_axis',(-1.,0.,0.));
#1675=DIRECTION('ref_axis',(0.,0.,1.));
#1676=DIRECTION('center_axis',(0.,0.,-1.));
#1677=DIRECTION('ref_axis',(-1.,0.,0.));
#1678=DIRECTION('center_axis',(-1.,0.,0.));
#1679=DIRECTION('ref_axis',(0.,0.,1.));
#1680=DIRECTION('center_axis',(-1.,0.,0.));
#1681=DIRECTION('ref_axis',(0.,0.,1.));
#1682=DIRECTION('',(1.,0.,0.));
#1683=DIRECTION('center_axis',(-1.,0.,0.));
#1684=DIRECTION('ref_axis',(0.,0.,1.));
#1685=DIRECTION('center_axis',(-1.,0.,0.));
#1686=DIRECTION('ref_axis',(0.,0.,1.));
#1687=DIRECTION('',(0.,0.,1.));
#1688=DIRECTION('',(1.,0.,0.));
#1689=DIRECTION('',(0.,1.22464679914735E-16,-1.));
#1690=DIRECTION('',(1.,0.,0.));
#1691=DIRECTION('',(0.,0.,1.));
#1692=DIRECTION('',(1.,0.,0.));
#1693=DIRECTION('',(0.,1.22464679914735E-16,-1.));
#1694=DIRECTION('',(1.,0.,0.));
#1695=DIRECTION('',(-1.,0.,0.));
#1696=DIRECTION('',(0.,0.,1.));
#1697=DIRECTION('',(0.999999999999999,0.,0.));
#1698=DIRECTION('',(-8.88178419700126E-16,0.5,-0.866025403784438));
#1699=CARTESIAN_POINT('',(0.,0.,0.));
#1700=CARTESIAN_POINT('',(0.,0.,0.));
#1701=CARTESIAN_POINT('Origin',(110.,106.,54.3));
#1702=CARTESIAN_POINT('',(110.,110.,105.6));
#1703=CARTESIAN_POINT('',(110.,110.,1.8));
#1704=CARTESIAN_POINT('',(110.,110.,27.6));
#1705=CARTESIAN_POINT('',(110.,108.6,105.6));
#1706=CARTESIAN_POINT('',(110.,53.35,105.6));
#1707=CARTESIAN_POINT('',(110.,108.6,1.8));
#1708=CARTESIAN_POINT('',(110.,108.6,53.95));
#1709=CARTESIAN_POINT('',(110.,106.,1.8));
#1710=CARTESIAN_POINT('Origin',(75.,55.,1.8));
#1711=CARTESIAN_POINT('',(150.,1.40000000000001,1.8));
#1712=CARTESIAN_POINT('',(150.,110.,1.8));
#1713=CARTESIAN_POINT('',(150.,55.,1.8));
#1714=CARTESIAN_POINT('',(112.5,110.,1.8));
#1715=CARTESIAN_POINT('',(1.39999999999999,108.6,1.8));
#1716=CARTESIAN_POINT('',(75.,108.6,1.8));
#1717=CARTESIAN_POINT('',(1.39999999999999,1.40000000000001,1.8));
#1718=CARTESIAN_POINT('',(1.40000000000001,55.,1.8));
#1719=CARTESIAN_POINT('',(75.,1.40000000000001,1.8));
#1720=CARTESIAN_POINT('Origin',(150.,55.,0.900000000000003));
#1721=CARTESIAN_POINT('',(150.,1.40000000000001,105.6));
#1722=CARTESIAN_POINT('',(150.,1.40000000000001,53.6));
#1723=CARTESIAN_POINT('',(150.,0.,105.6));
#1724=CARTESIAN_POINT('',(150.,0.700000000000003,105.6));
#1725=CARTESIAN_POINT('',(150.,0.,2.22044604925031E-15));
#1726=CARTESIAN_POINT('',(150.,0.,0.900000000000003));
#1727=CARTESIAN_POINT('',(150.,110.,2.22044604925031E-15));
#1728=CARTESIAN_POINT('',(150.,55.,2.22044604925031E-15));
#1729=CARTESIAN_POINT('',(150.,110.,53.6));
#1730=CARTESIAN_POINT('Origin',(75.,108.6,53.6));
#1731=CARTESIAN_POINT('',(1.39999999999999,108.6,105.6));
#1732=CARTESIAN_POINT('',(75.,108.6,105.6));
#1733=CARTESIAN_POINT('',(1.40000000000001,108.6,53.6));
#1734=CARTESIAN_POINT('Origin',(1.39999999999999,55.,53.6));
#1735=CARTESIAN_POINT('',(1.39999999999999,1.40000000000001,105.6));
#1736=CARTESIAN_POINT('',(1.39999999999999,55.,105.6));
#1737=CARTESIAN_POINT('',(1.40000000000001,1.40000000000001,53.6));
#1738=CARTESIAN_POINT('Origin',(75.,1.40000000000001,53.6));
#1739=CARTESIAN_POINT('',(75.,1.40000000000001,105.6));
#1740=CARTESIAN_POINT('Origin',(75.,0.700000000000003,105.6));
#1741=CARTESIAN_POINT('',(0.,110.,105.6));
#1742=CARTESIAN_POINT('',(75.,110.,105.6));
#1743=CARTESIAN_POINT('',(0.,0.,105.6));
#1744=CARTESIAN_POINT('',(0.,109.3,105.6));
#1745=CARTESIAN_POINT('',(75.,0.,105.6));
#1746=CARTESIAN_POINT('Origin',(75.,0.,0.900000000000003));
#1747=CARTESIAN_POINT('',(0.,0.,2.22044604925031E-15));
#1748=CARTESIAN_POINT('',(0.,0.,53.6));
#1749=CARTESIAN_POINT('',(75.,0.,2.22044604925031E-15));
#1750=CARTESIAN_POINT('Origin',(0.,55.,0.900000000000003));
#1751=CARTESIAN_POINT('',(0.,110.,2.22044604925031E-15));
#1752=CARTESIAN_POINT('',(0.,110.,53.6));
#1753=CARTESIAN_POINT('',(0.,55.,2.22044604925031E-15));
#1754=CARTESIAN_POINT('Origin',(75.,55.,2.22044604925031E-15));
#1755=CARTESIAN_POINT('',(75.,110.,2.22044604925031E-15));
#1756=CARTESIAN_POINT('Origin',(75.,110.,0.900000000000003));
#1757=CARTESIAN_POINT('',(0.,0.,0.));
#1758=CARTESIAN_POINT('Origin',(74.7,55.,1.77635683940025E-14));
#1759=CARTESIAN_POINT('',(149.4,110.,1.77635683940025E-14));
#1760=CARTESIAN_POINT('',(149.4,1.53080849893419E-14,1.77635683940025E-14));
#1761=CARTESIAN_POINT('',(149.4,55.,1.77635683940025E-14));
#1762=CARTESIAN_POINT('',(0.,1.53080849893419E-14,1.77635683940025E-14));
#1763=CARTESIAN_POINT('',(74.7,1.53080849893419E-14,1.77635683940025E-14));
#1764=CARTESIAN_POINT('',(0.,110.,1.77635683940025E-14));
#1765=CARTESIAN_POINT('',(0.,55.,1.77635683940025E-14));
#1766=CARTESIAN_POINT('',(74.7,110.,1.77635683940025E-14));
#1767=CARTESIAN_POINT('Origin',(74.7,55.,1.20000000000003));
#1768=CARTESIAN_POINT('',(149.4,1.53080849893419E-14,1.20000000000003));
#1769=CARTESIAN_POINT('',(149.4,110.,1.20000000000003));
#1770=CARTESIAN_POINT('',(149.4,55.,1.20000000000003));
#1771=CARTESIAN_POINT('',(0.,110.,1.20000000000003));
#1772=CARTESIAN_POINT('',(74.7,110.,1.20000000000003));
#1773=CARTESIAN_POINT('',(0.,1.53080849893419E-14,1.20000000000003));
#1774=CARTESIAN_POINT('',(0.,55.,1.20000000000003));
#1775=CARTESIAN_POINT('',(74.7,1.53080849893419E-14,1.20000000000003));
#1776=CARTESIAN_POINT('Origin',(74.7,110.,0.600000000000023));
#1777=CARTESIAN_POINT('',(0.,110.,0.600000000000023));
#1778=CARTESIAN_POINT('',(149.4,110.,0.600000000000023));
#1779=CARTESIAN_POINT('Origin',(0.,55.,0.600000000000023));
#1780=CARTESIAN_POINT('',(0.,1.53080849893419E-14,0.600000000000023));
#1781=CARTESIAN_POINT('Origin',(74.7,1.53080849893419E-14,0.600000000000023));
#1782=CARTESIAN_POINT('',(149.4,1.53080849893419E-14,0.600000000000023));
#1783=CARTESIAN_POINT('Origin',(149.4,55.,0.600000000000023));
#1784=CARTESIAN_POINT('',(0.,0.,0.));
#1785=CARTESIAN_POINT('Origin',(40.,106.,54.3));
#1786=CARTESIAN_POINT('',(40.,108.6,105.6));
#1787=CARTESIAN_POINT('',(40.,108.6,1.8));
#1788=CARTESIAN_POINT('',(40.,108.6,53.95));
#1789=CARTESIAN_POINT('',(40.,110.,105.6));
#1790=CARTESIAN_POINT('',(40.,107.65,105.6));
#1791=CARTESIAN_POINT('',(40.,110.,1.8));
#1792=CARTESIAN_POINT('',(40.,110.,27.6));
#1793=CARTESIAN_POINT('',(40.,106.,1.8));
#1794=CARTESIAN_POINT('Origin',(75.,108.6,53.6));
#1795=CARTESIAN_POINT('',(148.6,108.6,1.8));
#1796=CARTESIAN_POINT('',(75.,108.6,1.8));
#1797=CARTESIAN_POINT('',(148.6,108.6,105.6));
#1798=CARTESIAN_POINT('',(148.6,108.6,53.6));
#1799=CARTESIAN_POINT('',(75.,108.6,105.6));
#1800=CARTESIAN_POINT('Origin',(0.,55.,0.900000000000003));
#1801=CARTESIAN_POINT('',(0.,110.,1.8));
#1802=CARTESIAN_POINT('',(0.,1.40000000000001,1.8));
#1803=CARTESIAN_POINT('',(0.,55.,1.8));
#1804=CARTESIAN_POINT('',(0.,110.,2.22044604925031E-15));
#1805=CARTESIAN_POINT('',(0.,110.,53.6));
#1806=CARTESIAN_POINT('',(0.,0.,2.22044604925031E-15));
#1807=CARTESIAN_POINT('',(0.,55.,2.22044604925031E-15));
#1808=CARTESIAN_POINT('',(0.,0.,105.6));
#1809=CARTESIAN_POINT('',(0.,0.,53.6));
#1810=CARTESIAN_POINT('',(0.,1.40000000000001,105.6));
#1811=CARTESIAN_POINT('',(0.,0.700000000000003,105.6));
#1812=CARTESIAN_POINT('',(0.,1.40000000000001,53.6));
#1813=CARTESIAN_POINT('Origin',(148.6,55.,53.6));
#1814=CARTESIAN_POINT('',(148.6,1.40000000000001,105.6));
#1815=CARTESIAN_POINT('',(148.6,1.40000000000001,1.8));
#1816=CARTESIAN_POINT('',(148.6,1.40000000000001,53.6));
#1817=CARTESIAN_POINT('',(148.6,55.,105.6));
#1818=CARTESIAN_POINT('',(148.6,55.,1.8));
#1819=CARTESIAN_POINT('Origin',(75.,55.,1.8));
#1820=CARTESIAN_POINT('',(75.,1.40000000000001,1.8));
#1821=CARTESIAN_POINT('',(37.5,110.,1.8));
#1822=CARTESIAN_POINT('Origin',(75.,109.3,105.6));
#1823=CARTESIAN_POINT('',(75.,1.40000000000001,105.6));
#1824=CARTESIAN_POINT('',(150.,0.,105.6));
#1825=CARTESIAN_POINT('',(75.,0.,105.6));
#1826=CARTESIAN_POINT('',(150.,110.,105.6));
#1827=CARTESIAN_POINT('',(150.,0.700000000000003,105.6));
#1828=CARTESIAN_POINT('',(75.,110.,105.6));
#1829=CARTESIAN_POINT('Origin',(75.,110.,0.900000000000003));
#1830=CARTESIAN_POINT('',(150.,110.,2.22044604925031E-15));
#1831=CARTESIAN_POINT('',(150.,110.,53.6));
#1832=CARTESIAN_POINT('',(75.,110.,2.22044604925031E-15));
#1833=CARTESIAN_POINT('Origin',(75.,1.40000000000001,53.6));
#1834=CARTESIAN_POINT('Origin',(150.,55.,0.900000000000003));
#1835=CARTESIAN_POINT('',(150.,0.,2.22044604925031E-15));
#1836=CARTESIAN_POINT('',(150.,0.,0.900000000000003));
#1837=CARTESIAN_POINT('',(150.,55.,2.22044604925031E-15));
#1838=CARTESIAN_POINT('Origin',(75.,55.,2.22044604925031E-15));
#1839=CARTESIAN_POINT('',(75.,0.,2.22044604925031E-15));
#1840=CARTESIAN_POINT('Origin',(75.,0.,0.900000000000003));
#1841=CARTESIAN_POINT('',(0.,0.,0.));
#1842=CARTESIAN_POINT('Origin',(74.7,55.,1.77635683940025E-14));
#1843=CARTESIAN_POINT('',(149.4,110.,1.77635683940025E-14));
#1844=CARTESIAN_POINT('',(149.4,1.53080849893419E-14,1.77635683940025E-14));
#1845=CARTESIAN_POINT('',(149.4,55.,1.77635683940025E-14));
#1846=CARTESIAN_POINT('',(0.,1.53080849893419E-14,1.77635683940025E-14));
#1847=CARTESIAN_POINT('',(74.7,1.53080849893419E-14,1.77635683940025E-14));
#1848=CARTESIAN_POINT('',(0.,110.,1.77635683940025E-14));
#1849=CARTESIAN_POINT('',(0.,55.,1.77635683940025E-14));
#1850=CARTESIAN_POINT('',(74.7,110.,1.77635683940025E-14));
#1851=CARTESIAN_POINT('Origin',(74.7,55.,1.20000000000003));
#1852=CARTESIAN_POINT('',(149.4,1.53080849893419E-14,1.20000000000003));
#1853=CARTESIAN_POINT('',(149.4,110.,1.20000000000003));
#1854=CARTESIAN_POINT('',(149.4,55.,1.20000000000003));
#1855=CARTESIAN_POINT('',(0.,110.,1.20000000000003));
#1856=CARTESIAN_POINT('',(74.7,110.,1.20000000000003));
#1857=CARTESIAN_POINT('',(0.,1.53080849893419E-14,1.20000000000003));
#1858=CARTESIAN_POINT('',(0.,55.,1.20000000000003));
#1859=CARTESIAN_POINT('',(74.7,1.53080849893419E-14,1.20000000000003));
#1860=CARTESIAN_POINT('Origin',(74.7,110.,0.600000000000023));
#1861=CARTESIAN_POINT('',(0.,110.,0.600000000000023));
#1862=CARTESIAN_POINT('',(149.4,110.,0.600000000000023));
#1863=CARTESIAN_POINT('Origin',(0.,55.,0.600000000000023));
#1864=CARTESIAN_POINT('',(0.,1.53080849893419E-14,0.600000000000023));
#1865=CARTESIAN_POINT('Origin',(74.7,1.53080849893419E-14,0.600000000000023));
#1866=CARTESIAN_POINT('',(149.4,1.53080849893419E-14,0.600000000000023));
#1867=CARTESIAN_POINT('Origin',(149.4,55.,0.600000000000023));
#1868=CARTESIAN_POINT('',(0.,0.,0.));
#1869=CARTESIAN_POINT('Origin',(2.99999999999999,6.,1.50000000000003));
#1870=CARTESIAN_POINT('',(2.99999999999999,4.,3.00000000000003));
#1871=CARTESIAN_POINT('',(2.99999999999999,8.,3.00000000000003));
#1872=CARTESIAN_POINT('',(2.99999999999999,6.,3.00000000000003));
#1873=CARTESIAN_POINT('',(2.99999999999999,8.,2.66453525910038E-14));
#1874=CARTESIAN_POINT('Origin',(2.99999999999999,8.,1.50000000000003));
#1875=CARTESIAN_POINT('',(2.99999999999999,4.,2.66453525910038E-14));
#1876=CARTESIAN_POINT('',(2.99999999999999,6.,2.66453525910038E-14));
#1877=CARTESIAN_POINT('Origin',(2.99999999999999,4.,1.50000000000003));
#1878=CARTESIAN_POINT('Origin',(16.,8.,1.50000000000003));
#1879=CARTESIAN_POINT('',(27.,8.,3.00000000000003));
#1880=CARTESIAN_POINT('',(16.,8.,3.00000000000003));
#1881=CARTESIAN_POINT('',(27.,8.,2.66453525910038E-14));
#1882=CARTESIAN_POINT('',(27.,8.,1.50000000000003));
#1883=CARTESIAN_POINT('',(16.,8.,2.66453525910038E-14));
#1884=CARTESIAN_POINT('Origin',(16.,4.,1.50000000000003));
#1885=CARTESIAN_POINT('',(31.,4.,2.66453525910038E-14));
#1886=CARTESIAN_POINT('',(16.,4.,2.66453525910038E-14));
#1887=CARTESIAN_POINT('',(31.,4.,3.00000000000003));
#1888=CARTESIAN_POINT('',(31.,4.,1.50000000000003));
#1889=CARTESIAN_POINT('',(33.,4.,3.00000000000003));
#1890=CARTESIAN_POINT('Origin',(16.,6.,3.00000000000003));
#1891=CARTESIAN_POINT('',(29.4606079858305,13.,3.00000000000003));
#1892=CARTESIAN_POINT('Origin',(39.,10.,3.00000000000003));
#1893=CARTESIAN_POINT('',(27.,13.,3.00000000000003));
#1894=CARTESIAN_POINT('',(33.,13.,3.00000000000003));
#1895=CARTESIAN_POINT('',(27.,8.5,3.00000000000003));
#1896=CARTESIAN_POINT('',(41.3,10.,3.00000000000003));
#1897=CARTESIAN_POINT('Origin',(39.,10.,3.00000000000003));
#1898=CARTESIAN_POINT('Origin',(39.,10.,1.30000000000003));
#1899=CARTESIAN_POINT('',(41.3,10.,2.66453525910038E-14));
#1900=CARTESIAN_POINT('',(41.3,10.,1.30000000000003));
#1901=CARTESIAN_POINT('Origin',(39.,10.,2.66453525910038E-14));
#1902=CARTESIAN_POINT('Origin',(39.,10.,1.50000000000003));
#1903=CARTESIAN_POINT('',(29.4606079858305,13.,2.66453525910038E-14));
#1904=CARTESIAN_POINT('Origin',(39.,10.,2.66453525910038E-14));
#1905=CARTESIAN_POINT('',(29.4606079858305,13.,1.50000000000003));
#1906=CARTESIAN_POINT('Origin',(33.,13.,1.50000000000003));
#1907=CARTESIAN_POINT('',(27.,13.,2.66453525910038E-14));
#1908=CARTESIAN_POINT('',(33.,13.,2.66453525910038E-14));
#1909=CARTESIAN_POINT('',(27.,13.,1.50000000000003));
#1910=CARTESIAN_POINT('Origin',(27.,8.5,1.50000000000003));
#1911=CARTESIAN_POINT('',(27.,8.5,2.66453525910038E-14));
#1912=CARTESIAN_POINT('Origin',(16.,6.,2.66453525910038E-14));
#1913=CARTESIAN_POINT('Origin',(-1.77635683940025E-14,6.,1.50000000000003));
#1914=CARTESIAN_POINT('',(-1.77635683940025E-14,8.,2.66453525910038E-14));
#1915=CARTESIAN_POINT('',(-1.77635683940025E-14,4.,2.66453525910038E-14));
#1916=CARTESIAN_POINT('',(-1.77635683940025E-14,6.,2.66453525910038E-14));
#1917=CARTESIAN_POINT('',(-1.77635683940025E-14,4.,3.00000000000003));
#1918=CARTESIAN_POINT('',(-1.77635683940025E-14,4.,1.50000000000003));
#1919=CARTESIAN_POINT('',(-1.77635683940025E-14,8.,3.00000000000003));
#1920=CARTESIAN_POINT('',(-1.77635683940025E-14,6.,3.00000000000003));
#1921=CARTESIAN_POINT('',(-1.77635683940025E-14,8.,1.50000000000003));
#1922=CARTESIAN_POINT('Origin',(16.,6.,3.00000000000003));
#1923=CARTESIAN_POINT('',(2.99999999999999,4.,3.00000000000003));
#1924=CARTESIAN_POINT('',(2.99999999999999,8.,3.00000000000003));
#1925=CARTESIAN_POINT('',(2.99999999999999,6.,3.00000000000003));
#1926=CARTESIAN_POINT('',(16.,8.,3.00000000000003));
#1927=CARTESIAN_POINT('',(33.,4.,3.00000000000003));
#1928=CARTESIAN_POINT('Origin',(16.,4.,1.50000000000003));
#1929=CARTESIAN_POINT('',(2.99999999999999,4.,2.66453525910038E-14));
#1930=CARTESIAN_POINT('Origin',(2.99999999999999,4.,1.50000000000003));
#1931=CARTESIAN_POINT('',(16.,4.,2.66453525910038E-14));
#1932=CARTESIAN_POINT('Origin',(16.,8.,1.50000000000003));
#1933=CARTESIAN_POINT('',(2.99999999999999,8.,2.66453525910038E-14));
#1934=CARTESIAN_POINT('Origin',(2.99999999999999,8.,1.50000000000003));
#1935=CARTESIAN_POINT('',(16.,8.,2.66453525910038E-14));
#1936=CARTESIAN_POINT('Origin',(16.,6.,2.66453525910038E-14));
#1937=CARTESIAN_POINT('',(2.99999999999999,6.,2.66453525910038E-14));
#1938=CARTESIAN_POINT('Origin',(2.99999999999999,6.,1.50000000000003));
#1939=CARTESIAN_POINT('',(0.,0.,0.));
#1940=CARTESIAN_POINT('Origin',(9.5,17.5,7.6));
#1941=CARTESIAN_POINT('',(20.,16.2713634881101,7.6));
#1942=CARTESIAN_POINT('',(0.,16.2713634881101,7.6));
#1943=CARTESIAN_POINT('',(15.,16.2713634881101,7.6));
#1944=CARTESIAN_POINT('',(20.,18.1780193201043,7.6));
#1945=CARTESIAN_POINT('',(20.,17.5,7.6));
#1946=CARTESIAN_POINT('',(0.,18.1780193201043,7.6));
#1947=CARTESIAN_POINT('',(15.,18.1780193201043,7.6));
#1948=CARTESIAN_POINT('',(0.,13.75,7.6));
#1949=CARTESIAN_POINT('Origin',(20.,17.5,8.2));
#1950=CARTESIAN_POINT('',(20.,16.2713634881101,8.8));
#1951=CARTESIAN_POINT('Origin',(20.,10.,8.2));
#1952=CARTESIAN_POINT('',(20.,18.1780193201043,8.8));
#1953=CARTESIAN_POINT('',(20.,17.5,8.8));
#1954=CARTESIAN_POINT('Origin',(20.,10.,8.2));
#1955=CARTESIAN_POINT('Origin',(9.5,17.5,8.8));
#1956=CARTESIAN_POINT('',(0.,16.2713634881101,8.8));
#1957=CARTESIAN_POINT('',(15.,16.2713634881101,8.8));
#1958=CARTESIAN_POINT('',(0.,18.1780193201043,8.8));
#1959=CARTESIAN_POINT('',(0.,13.75,8.8));
#1960=CARTESIAN_POINT('',(15.,18.1780193201043,8.8));
#1961=CARTESIAN_POINT('Origin',(15.,10.,8.2));
#1962=CARTESIAN_POINT('',(30.,10.,14.5));
#1963=CARTESIAN_POINT('Origin',(30.,10.,8.2));
#1964=CARTESIAN_POINT('',(27.7,10.,14.5));
#1965=CARTESIAN_POINT('',(15.,10.,14.5));
#1966=CARTESIAN_POINT('',(0.,10.,14.5));
#1967=CARTESIAN_POINT('',(15.,10.,14.5));
#1968=CARTESIAN_POINT('Origin',(0.,10.,8.2));
#1969=CARTESIAN_POINT('Origin',(0.,10.,8.2));
#1970=CARTESIAN_POINT('',(15.,10.,14.5));
#1971=CARTESIAN_POINT('Origin',(30.,10.,14.5));
#1972=CARTESIAN_POINT('',(30.,7.7,14.5));
#1973=CARTESIAN_POINT('',(30.,10.,14.5));
#1974=CARTESIAN_POINT('Origin',(30.,10.,14.5));
#1975=CARTESIAN_POINT('Origin',(30.,10.,14.5));
#1976=CARTESIAN_POINT('',(30.,12.3,14.5));
#1977=CARTESIAN_POINT('',(30.,10.,14.5));
#1978=CARTESIAN_POINT('Origin',(30.,10.,14.5));
#1979=CARTESIAN_POINT('Origin',(30.,10.,18.35));
#1980=CARTESIAN_POINT('',(30.,12.3,16.7));
#1981=CARTESIAN_POINT('',(30.,12.3,18.35));
#1982=CARTESIAN_POINT('',(30.,7.7,16.7));
#1983=CARTESIAN_POINT('Origin',(30.,10.,16.7));
#1984=CARTESIAN_POINT('',(30.,7.7,18.35));
#1985=CARTESIAN_POINT('',(27.7,10.,18.2));
#1986=CARTESIAN_POINT('',(27.7,10.,18.35));
#1987=CARTESIAN_POINT('Origin',(30.,10.,18.2));
#1988=CARTESIAN_POINT('Origin',(30.,10.,8.2));
#1989=CARTESIAN_POINT('',(30.,7.,16.7));
#1990=CARTESIAN_POINT('',(30.,10.,16.7));
#1991=CARTESIAN_POINT('',(30.,7.,15.8315136113356));
#1992=CARTESIAN_POINT('',(30.,7.,15.7));
#1993=CARTESIAN_POINT('',(30.,10.,0.));
#1994=CARTESIAN_POINT('Origin',(30.,10.,8.2));
#1995=CARTESIAN_POINT('',(30.,13.,15.8315136113356));
#1996=CARTESIAN_POINT('Origin',(30.,10.,8.2));
#1997=CARTESIAN_POINT('',(30.,13.,16.7));
#1998=CARTESIAN_POINT('',(30.,13.,15.7));
#1999=CARTESIAN_POINT('',(30.,10.,16.7));
#2000=CARTESIAN_POINT('Origin',(30.,10.,16.7));
#2001=CARTESIAN_POINT('',(20.,10.,16.7));
#2002=CARTESIAN_POINT('Origin',(30.,10.,16.7));
#2003=CARTESIAN_POINT('',(25.,13.,16.7));
#2004=CARTESIAN_POINT('',(28.75,13.,16.7));
#2005=CARTESIAN_POINT('',(25.,7.,16.7));
#2006=CARTESIAN_POINT('',(25.,10.,16.7));
#2007=CARTESIAN_POINT('',(28.75,7.,16.7));
#2008=CARTESIAN_POINT('Origin',(30.,10.,17.45));
#2009=CARTESIAN_POINT('',(20.,10.,18.2));
#2010=CARTESIAN_POINT('Origin',(30.,10.,18.2));
#2011=CARTESIAN_POINT('',(20.,10.,17.45));
#2012=CARTESIAN_POINT('Origin',(27.5,13.,15.7));
#2013=CARTESIAN_POINT('',(25.,13.,15.8315136113356));
#2014=CARTESIAN_POINT('',(15.,13.,15.8315136113356));
#2015=CARTESIAN_POINT('',(25.,13.,15.7));
#2016=CARTESIAN_POINT('Origin',(27.5,7.,15.7));
#2017=CARTESIAN_POINT('',(25.,7.,15.8315136113356));
#2018=CARTESIAN_POINT('',(25.,7.,15.7));
#2019=CARTESIAN_POINT('',(15.,7.,15.8315136113356));
#2020=CARTESIAN_POINT('Origin',(25.,10.,15.7));
#2021=CARTESIAN_POINT('Origin',(25.,10.,8.2));
#2022=CARTESIAN_POINT('Origin',(27.5,10.,18.2));
#2023=CARTESIAN_POINT('Origin',(15.,10.,8.2));
#2024=CARTESIAN_POINT('',(0.,10.,0.));
#2025=CARTESIAN_POINT('Origin',(0.,10.,8.2));
#2026=CARTESIAN_POINT('',(15.,10.,0.));
#2027=CARTESIAN_POINT('Origin',(0.,10.,8.2));
#2028=CARTESIAN_POINT('Origin',(0.,10.,8.2));
#2029=CARTESIAN_POINT('',(-150.,-110.,18.2));
#2030=CARTESIAN_POINT('',(-149.7,-3.94430452610506E-30,125.));
#2031=CARTESIAN_POINT('',(0.,-110.,18.2));
#2032=CARTESIAN_POINT('',(0.300000000000011,-3.94430452610506E-30,125.));
#2033=CARTESIAN_POINT('',(-56.7,-10.,116.));
#2034=CARTESIAN_POINT('',(-78.2,-23.6602540378444,175.980762113533));
#2035=UNCERTAINTY_MEASURE_WITH_UNIT(LENGTH_MEASURE(0.01),#2051,
'DISTANCE_ACCURACY_VALUE',
'Maximum model space distance between geometric entities at asserted c
onnectivities');
#2036=UNCERTAINTY_MEASURE_WITH_UNIT(LENGTH_MEASURE(0.01),#2051,
'DISTANCE_ACCURACY_VALUE',
'Maximum model space distance between geometric entities at asserted c
onnectivities');
#2037=UNCERTAINTY_MEASURE_WITH_UNIT(LENGTH_MEASURE(0.01),#2051,
'DISTANCE_ACCURACY_VALUE',
'Maximum model space distance between geometric entities at asserted c
onnectivities');
#2038=UNCERTAINTY_MEASURE_WITH_UNIT(LENGTH_MEASURE(0.01),#2051,
'DISTANCE_ACCURACY_VALUE',
'Maximum model space distance between geometric entities at asserted c
onnectivities');
#2039=UNCERTAINTY_MEASURE_WITH_UNIT(LENGTH_MEASURE(0.01),#2051,
'DISTANCE_ACCURACY_VALUE',
'Maximum model space distance between geometric entities at asserted c
onnectivities');
#2040=UNCERTAINTY_MEASURE_WITH_UNIT(LENGTH_MEASURE(0.01),#2051,
'DISTANCE_ACCURACY_VALUE',
'Maximum model space distance between geometric entities at asserted c
onnectivities');
#2041=UNCERTAINTY_MEASURE_WITH_UNIT(LENGTH_MEASURE(0.01),#2051,
'DISTANCE_ACCURACY_VALUE',
'Maximum model space distance between geometric entities at asserted c
onnectivities');
#2042=UNCERTAINTY_MEASURE_WITH_UNIT(LENGTH_MEASURE(0.01),#2051,
'DISTANCE_ACCURACY_VALUE',
'Maximum model space distance between geometric entities at asserted c
onnectivities');
#2043=(
GEOMETRIC_REPRESENTATION_CONTEXT(3)
GLOBAL_UNCERTAINTY_ASSIGNED_CONTEXT((#2035))
GLOBAL_UNIT_ASSIGNED_CONTEXT((#2051,#2053,#2054))
REPRESENTATION_CONTEXT('','3D')
);
#2044=(
GEOMETRIC_REPRESENTATION_CONTEXT(3)
GLOBAL_UNCERTAINTY_ASSIGNED_CONTEXT((#2036))
GLOBAL_UNIT_ASSIGNED_CONTEXT((#2051,#2053,#2054))
REPRESENTATION_CONTEXT('','3D')
);
#2045=(
GEOMETRIC_REPRESENTATION_CONTEXT(3)
GLOBAL_UNCERTAINTY_ASSIGNED_CONTEXT((#2037))
GLOBAL_UNIT_ASSIGNED_CONTEXT((#2051,#2053,#2054))
REPRESENTATION_CONTEXT('','3D')
);
#2046=(
GEOMETRIC_REPRESENTATION_CONTEXT(3)
GLOBAL_UNCERTAINTY_ASSIGNED_CONTEXT((#2038))
GLOBAL_UNIT_ASSIGNED_CONTEXT((#2051,#2053,#2054))
REPRESENTATION_CONTEXT('','3D')
);
#2047=(
GEOMETRIC_REPRESENTATION_CONTEXT(3)
GLOBAL_UNCERTAINTY_ASSIGNED_CONTEXT((#2039))
GLOBAL_UNIT_ASSIGNED_CONTEXT((#2051,#2053,#2054))
REPRESENTATION_CONTEXT('','3D')
);
#2048=(
GEOMETRIC_REPRESENTATION_CONTEXT(3)
GLOBAL_UNCERTAINTY_ASSIGNED_CONTEXT((#2040))
GLOBAL_UNIT_ASSIGNED_CONTEXT((#2051,#2053,#2054))
REPRESENTATION_CONTEXT('','3D')
);
#2049=(
GEOMETRIC_REPRESENTATION_CONTEXT(3)
GLOBAL_UNCERTAINTY_ASSIGNED_CONTEXT((#2041))
GLOBAL_UNIT_ASSIGNED_CONTEXT((#2051,#2053,#2054))
REPRESENTATION_CONTEXT('','3D')
);
#2050=(
GEOMETRIC_REPRESENTATION_CONTEXT(3)
GLOBAL_UNCERTAINTY_ASSIGNED_CONTEXT((#2042))
GLOBAL_UNIT_ASSIGNED_CONTEXT((#2051,#2053,#2054))
REPRESENTATION_CONTEXT('','3D')
);
#2051=(
LENGTH_UNIT()
NAMED_UNIT(*)
SI_UNIT(.MILLI.,.METRE.)
);
#2052=(
LENGTH_UNIT()
NAMED_UNIT(*)
SI_UNIT($,.METRE.)
);
#2053=(
NAMED_UNIT(*)
PLANE_ANGLE_UNIT()
SI_UNIT($,.RADIAN.)
);
#2054=(
NAMED_UNIT(*)
SI_UNIT($,.STERADIAN.)
SOLID_ANGLE_UNIT()
);
#2055=SHAPE_DEFINITION_REPRESENTATION(#2062,#2075);
#2056=SHAPE_DEFINITION_REPRESENTATION(#2063,#2076);
#2057=SHAPE_DEFINITION_REPRESENTATION(#2064,#2077);
#2058=SHAPE_DEFINITION_REPRESENTATION(#2065,#2078);
#2059=SHAPE_DEFINITION_REPRESENTATION(#2066,#2079);
#2060=SHAPE_DEFINITION_REPRESENTATION(#2067,#2080);
#2061=SHAPE_DEFINITION_REPRESENTATION(#2068,#2081);
#2062=PRODUCT_DEFINITION_SHAPE('',$,#2083);
#2063=PRODUCT_DEFINITION_SHAPE('',$,#2084);
#2064=PRODUCT_DEFINITION_SHAPE('',$,#2085);
#2065=PRODUCT_DEFINITION_SHAPE('',$,#2086);
#2066=PRODUCT_DEFINITION_SHAPE('',$,#2087);
#2067=PRODUCT_DEFINITION_SHAPE('',$,#2088);
#2068=PRODUCT_DEFINITION_SHAPE('',$,#2089);
#2069=PRODUCT_DEFINITION_SHAPE($,$,#29);
#2070=PRODUCT_DEFINITION_SHAPE($,$,#30);
#2071=PRODUCT_DEFINITION_SHAPE($,$,#31);
#2072=PRODUCT_DEFINITION_SHAPE($,$,#32);
#2073=PRODUCT_DEFINITION_SHAPE($,$,#33);
#2074=PRODUCT_DEFINITION_SHAPE($,$,#34);
#2075=SHAPE_REPRESENTATION('',(#1261,#1357,#1358,#1359,#1360,#1361,#1362),
#2043);
#2076=SHAPE_REPRESENTATION('',(#1262),#2044);
#2077=SHAPE_REPRESENTATION('',(#1274),#2045);
#2078=SHAPE_REPRESENTATION('',(#1281),#2046);
#2079=SHAPE_REPRESENTATION('',(#1293),#2047);
#2080=SHAPE_REPRESENTATION('',(#1300),#2048);
#2081=SHAPE_REPRESENTATION('',(#1324),#2049);
#2082=PRODUCT_DEFINITION_CONTEXT('part definition',#2105,'design');
#2083=PRODUCT_DEFINITION('2026-09-26-01-32-13-819','(Unsaved)',#2090,#2082);
#2084=PRODUCT_DEFINITION('2026-09-26-01-32-14-187','01_body_rear',#2091,
#2082);
#2085=PRODUCT_DEFINITION('2026-09-26-01-32-14-260','03_roof_rear',#2092,
#2082);
#2086=PRODUCT_DEFINITION('2026-09-26-01-32-14-331','02_body_front',#2093,
#2082);
#2087=PRODUCT_DEFINITION('2026-09-26-01-32-14-400','04_roof_front',#2094,
#2082);
#2088=PRODUCT_DEFINITION('2026-09-26-01-32-14-476','15_L1_yoke',#2095,#2082);
#2089=PRODUCT_DEFINITION('2026-09-26-01-32-14-557','18_laser_carrier',#2096,
#2082);
#2090=PRODUCT_DEFINITION_FORMATION('',$,#2107);
#2091=PRODUCT_DEFINITION_FORMATION('',$,#2108);
#2092=PRODUCT_DEFINITION_FORMATION('',$,#2109);
#2093=PRODUCT_DEFINITION_FORMATION('',$,#2110);
#2094=PRODUCT_DEFINITION_FORMATION('',$,#2111);
#2095=PRODUCT_DEFINITION_FORMATION('',$,#2112);
#2096=PRODUCT_DEFINITION_FORMATION('',$,#2113);
#2097=PRODUCT_RELATED_PRODUCT_CATEGORY('(Unsaved)','(Unsaved)',(#2107));
#2098=PRODUCT_RELATED_PRODUCT_CATEGORY('01_body_rear','01_body_rear',(#2108));
#2099=PRODUCT_RELATED_PRODUCT_CATEGORY('03_roof_rear','03_roof_rear',(#2109));
#2100=PRODUCT_RELATED_PRODUCT_CATEGORY('02_body_front','02_body_front',
(#2110));
#2101=PRODUCT_RELATED_PRODUCT_CATEGORY('04_roof_front','04_roof_front',
(#2111));
#2102=PRODUCT_RELATED_PRODUCT_CATEGORY('15_L1_yoke','15_L1_yoke',(#2112));
#2103=PRODUCT_RELATED_PRODUCT_CATEGORY('18_laser_carrier',
'18_laser_carrier',(#2113));
#2104=APPLICATION_PROTOCOL_DEFINITION('international standard',
'automotive_design',2009,#2105);
#2105=APPLICATION_CONTEXT(
'Core Data for Automotive Mechanical Design Process');
#2106=PRODUCT_CONTEXT('part definition',#2105,'mechanical');
#2107=PRODUCT('2026-09-26-01-32-13-819','(Unsaved)',$,(#2106));
#2108=PRODUCT('2026-09-26-01-32-14-187','01_body_rear',$,(#2106));
#2109=PRODUCT('2026-09-26-01-32-14-260','03_roof_rear',$,(#2106));
#2110=PRODUCT('2026-09-26-01-32-14-331','02_body_front',$,(#2106));
#2111=PRODUCT('2026-09-26-01-32-14-400','04_roof_front',$,(#2106));
#2112=PRODUCT('2026-09-26-01-32-14-476','15_L1_yoke',$,(#2106));
#2113=PRODUCT('2026-09-26-01-32-14-557','18_laser_carrier',$,(#2106));
#2114=PRESENTATION_STYLE_ASSIGNMENT((#2117));
#2115=PRESENTATION_STYLE_ASSIGNMENT((#2118));
#2116=PRESENTATION_STYLE_ASSIGNMENT((#2119));
#2117=SURFACE_STYLE_USAGE(.BOTH.,#2120);
#2118=SURFACE_STYLE_USAGE(.BOTH.,#2121);
#2119=SURFACE_STYLE_USAGE(.BOTH.,#2122);
#2120=SURFACE_SIDE_STYLE('',(#2123));
#2121=SURFACE_SIDE_STYLE('',(#2124));
#2122=SURFACE_SIDE_STYLE('',(#2125));
#2123=SURFACE_STYLE_FILL_AREA(#2126);
#2124=SURFACE_STYLE_FILL_AREA(#2127);
#2125=SURFACE_STYLE_FILL_AREA(#2128);
#2126=FILL_AREA_STYLE('Steel - Satin',(#2129));
#2127=FILL_AREA_STYLE('purple',(#2130));
#2128=FILL_AREA_STYLE('red',(#2131));
#2129=FILL_AREA_STYLE_COLOUR('Steel - Satin',#2132);
#2130=FILL_AREA_STYLE_COLOUR('purple',#2133);
#2131=FILL_AREA_STYLE_COLOUR('red',#2134);
#2132=COLOUR_RGB('Steel - Satin',0.627450980392157,0.627450980392157,0.627450980392157);
#2133=COLOUR_RGB('purple',0.443137254901961,0.23921568627451,0.662745098039216);
#2134=COLOUR_RGB('red',0.819607843137255,0.211764705882353,0.282352941176471);
ENDSEC;
END-ISO-10303-21;
